<svg width="1208" height="1208" version="1.1" xmlns="http://www.w3.org/2000/svg" desc="Created with imagetracer.js version 1.2.6" ><path fill="rgb(242,205,193)" stroke="rgb(242,205,193)" stroke-width="1" opacity="1" d="M 193 130 L 257 130 L 257 193 L 318.5 193 L 320 194.5 L 320 255.5 L 319 255.5 L 319 194 L 256.5 194 L 255 194.5 L 256 193.5 L 256 131 L 194 131 L 194 193.5 L 193 193.5 L 193 130 Z " /><path fill="rgb(242,205,193)" stroke="rgb(242,205,193)" stroke-width="1" opacity="1" d="M 891.5 130 L 1008 130.5 L 891.5 131 L 891.5 130 Z " /><path fill="rgb(242,205,193)" stroke="rgb(242,205,193)" stroke-width="1" opacity="1" d="M 248.5 194 L 251 194.5 L 248.5 195 L 248.5 194 Z " /><path fill="rgb(242,205,193)" stroke="rgb(242,205,193)" stroke-width="1" opacity="1" d="M 193.5 195 L 194 444 L 253.5 444 L 255 442.5 L 255 384.5 L 256 381 L 316.5 381 L 318 379.5 L 318 320.5 L 319.5 319 L 380.5 319 L 382 317.5 L 382.5 257 L 383 320 L 320 320 L 320 383 L 257 383 L 257 437.5 L 256 439.5 L 256 441.5 Q 256.5 446 255.5 446 L 193.5 446 L 193 443.5 L 193.5 195 Z " /><path fill="rgb(242,205,193)" stroke="rgb(242,205,193)" stroke-width="1" opacity="1" d="M 315.5 257 L 319 257.5 L 315.5 258 L 315.5 257 Z " /><path fill="rgb(242,205,193)" stroke="rgb(242,205,193)" stroke-width="1" opacity="1" d="M 888.5 320 L 889 382.5 L 888 382.5 L 888.5 320 Z " /><path fill="rgb(242,205,193)" stroke="rgb(242,205,193)" stroke-width="1" opacity="1" d="M 509 383 L 511 383.5 L 510 384.5 L 509.5 446 L 509 383 Z " /><path fill="rgb(242,205,193)" stroke="rgb(242,205,193)" stroke-width="1" opacity="1" d="M 951.5 383 L 952 445.5 L 951 445.5 L 951.5 383 Z " /><path fill="rgb(242,205,193)" stroke="rgb(242,205,193)" stroke-width="1" opacity="1" d="M 958.5 444 L 961 444.5 L 958.5 445 L 958.5 444 Z " /><path fill="rgb(242,205,193)" stroke="rgb(242,205,193)" stroke-width="1" opacity="1" d="M 383 509 L 446 509.5 L 384.5 510 L 383.5 511 L 383 509 Z " /><path fill="rgb(242,205,193)" stroke="rgb(242,205,193)" stroke-width="1" opacity="1" d="M 636.5 509 L 698 509.5 L 636.5 510 L 636.5 509 Z " /><path fill="rgb(242,205,193)" stroke="rgb(242,205,193)" stroke-width="1" opacity="1" d="M 698.5 511 L 699 697.5 L 697.5 699 L 636 699 L 635.5 762 L 635 699.5 L 636.5 698 L 698 698 L 698.5 511 Z " /><path fill="rgb(242,205,193)" stroke="rgb(242,205,193)" stroke-width="1" opacity="1" d="M 320.5 698 L 383 698.5 L 320.5 699 L 320.5 698 Z " /><path fill="rgb(242,205,193)" stroke="rgb(242,205,193)" stroke-width="1" opacity="1" d="M 887.5 763 L 888 821.5 L 887 821.5 L 887.5 763 Z " /><path fill="rgb(242,205,193)" stroke="rgb(242,205,193)" stroke-width="1" opacity="1" d="M 949.5 825 Q 951.8 824.3 951 826.5 L 949.5 825 Z " /><path fill="rgb(242,205,193)" stroke="rgb(242,205,193)" stroke-width="1" opacity="1" d="M 511.5 888 L 571 888.5 L 511.5 889 L 511.5 888 Z " /><path fill="rgb(242,205,193)" stroke="rgb(242,205,193)" stroke-width="1" opacity="1" d="M 193.5 889 L 194 950.5 L 193 950.5 L 193.5 889 Z " /><path fill="rgb(242,205,193)" stroke="rgb(242,205,193)" stroke-width="1" opacity="1" d="M 562.5 950 L 567 950.5 L 562.5 951 L 562.5 950 Z " /><path fill="rgb(242,205,193)" stroke="rgb(242,205,193)" stroke-width="1" opacity="1" d="M 571.5 950 L 572.5 951 L 634.5 951 L 636 952.5 L 636 1013.5 L 634.5 1015 L 573.5 1015 L 572 1013.5 L 572 951.5 L 571.5 950 Z M 573 952 L 573 1014 L 635 1014 L 635 952 L 573 952 Z " /><path fill="rgb(242,205,193)" stroke="rgb(242,205,193)" stroke-width="1" opacity="1" d="M 446.5 951 L 509 951.5 L 446.5 952 L 446.5 951 Z " /><path fill="rgb(242,205,193)" stroke="rgb(242,205,193)" stroke-width="1" opacity="1" d="M 887.5 953 L 888 1012.5 L 887 1012.5 L 887.5 953 Z " /><path fill="rgb(242,205,193)" stroke="rgb(242,205,193)" stroke-width="1" opacity="1" d="M 257.5 1014 L 383 1014.5 L 257.5 1015 L 257.5 1014 Z " /><path fill="rgb(242,205,193)" stroke="rgb(242,205,193)" stroke-width="1" opacity="1" d="M 446.5 1014 L 509 1014.5 L 446.5 1015 L 446.5 1014 Z " /><path fill="rgb(242,205,193)" stroke="rgb(242,205,193)" stroke-width="1" opacity="1" d="M 762.5 1014 L 888 1014.5 L 762 1015 L 761.5 1076 L 761 1015.5 L 762.5 1014 Z " /><path fill="rgb(2,73,121)" stroke="rgb(2,73,121)" stroke-width="1" opacity="1" d="M 3 3 L 1204 3.5 L 4 4 L 3.5 1151 L 3 3 Z " /><path fill="rgb(2,73,121)" stroke="rgb(2,73,121)" stroke-width="1" opacity="1" d="M 1077.5 67 L 1078 887.5 L 1077 887.5 L 1077.5 67 Z " /><path fill="rgb(2,73,121)" stroke="rgb(2,73,121)" stroke-width="1" opacity="1" d="M 762.5 193 L 825 193.5 L 762.5 194 L 762.5 193 Z " /><path fill="rgb(2,73,121)" stroke="rgb(2,73,121)" stroke-width="1" opacity="1" d="M 762.5 572 L 825 572.5 L 762.5 573 L 762.5 572 Z " /><path fill="rgb(2,73,121)" stroke="rgb(2,73,121)" stroke-width="1" opacity="1" d="M 256.5 635 L 320 635.5 L 256.5 636 L 256.5 635 Z " /><path fill="rgb(2,73,121)" stroke="rgb(2,73,121)" stroke-width="1" opacity="1" d="M 762.5 635 L 825 635.5 L 762.5 636 L 762.5 635 Z " /><path fill="rgb(2,73,121)" stroke="rgb(2,73,121)" stroke-width="1" opacity="1" d="M 256.5 700 L 257 761.5 L 256 761.5 L 256.5 700 Z " /><path fill="rgb(2,73,121)" stroke="rgb(2,73,121)" stroke-width="1" opacity="1" d="M 193.5 701 L 194 757.5 L 193 757.5 L 193.5 701 Z " /><path fill="rgb(2,73,121)" stroke="rgb(2,73,121)" stroke-width="1" opacity="1" d="M 3.5 1152 L 4 1201.5 L 3 1201.5 L 3.5 1152 Z " /><path fill="rgb(2,73,121)" stroke="rgb(2,73,121)" stroke-width="1" opacity="1" d="M 4.5 1203 L 336 1203.5 L 4.5 1204 L 4.5 1203 Z " /><path fill="rgb(254,204,209)" stroke="rgb(254,204,209)" stroke-width="1" opacity="1" d="M 888.5 133 L 889 191.5 L 888 191.5 L 888.5 133 Z " /><path fill="rgb(254,204,209)" stroke="rgb(254,204,209)" stroke-width="1" opacity="1" d="M 194.5 193 L 200.5 195 L 201.5 194 L 239.5 194 L 241.5 193 L 243.5 194 L 245.5 193 L 247.5 194 L 249.5 193 L 249.5 194 L 248 194.5 L 250.5 195 L 255.5 193 Q 258.2 194.3 256 195.5 L 256 255.5 L 257.5 257 L 303.5 257 L 308.5 258 L 311.5 257 L 318.5 258 L 318.5 257 L 316 256.5 L 320 256 L 320 318.5 L 318 320.5 L 318 379.5 L 316.5 381 L 256.5 381 L 256 383.5 L 255 384.5 L 255 442.5 L 253.5 444 L 194.5 444 L 194 443.5 L 194.5 193 Z " /><path fill="rgb(254,204,209)" stroke="rgb(254,204,209)" stroke-width="1" opacity="1" d="M 888.5 193 L 889.5 195 L 890.5 193 L 891.5 194 L 1008.5 194 L 1010.5 194 L 1012.5 193 Q 1010.9 194.8 1014 196.5 L 1013 198.5 L 1013 435.5 L 1014 437.5 L 1013 439.5 L 1013 441.5 L 1012 444.5 L 1012.5 446 L 952 446 L 952 383 L 889 383 L 889 320.5 L 888 319.5 L 888.5 193 Z M 959 444 L 959 445 L 961 445 L 959 444 Z " /><path fill="rgb(254,204,209)" stroke="rgb(254,204,209)" stroke-width="1" opacity="1" d="M 511.5 383 L 571 383.5 L 511.5 384 L 511.5 383 Z " /><path fill="rgb(254,204,209)" stroke="rgb(254,204,209)" stroke-width="1" opacity="1" d="M 447.5 446 L 507 446.5 L 447.5 447 L 447.5 446 Z " /><path fill="rgb(254,204,209)" stroke="rgb(254,204,209)" stroke-width="1" opacity="1" d="M 446.5 448 L 447 504.5 L 446 504.5 L 446.5 448 Z " /><path fill="rgb(254,204,209)" stroke="rgb(254,204,209)" stroke-width="1" opacity="1" d="M 383.5 511 L 384 570.5 L 383 570.5 L 383.5 511 Z " /><path fill="rgb(254,204,209)" stroke="rgb(254,204,209)" stroke-width="1" opacity="1" d="M 697.5 574 L 698 632.5 L 697 632.5 L 697.5 574 Z " /><path fill="rgb(254,204,209)" stroke="rgb(254,204,209)" stroke-width="1" opacity="1" d="M 384.5 635 L 445 635.5 L 384.5 636 L 384.5 635 Z " /><path fill="rgb(254,204,209)" stroke="rgb(254,204,209)" stroke-width="1" opacity="1" d="M 637.5 697 L 695 697.5 L 637.5 698 L 637.5 697 Z " /><path fill="rgb(254,204,209)" stroke="rgb(254,204,209)" stroke-width="1" opacity="1" d="M 446.5 701 L 447 759.5 L 446 759.5 L 446.5 701 Z " /><path fill="rgb(254,204,209)" stroke="rgb(254,204,209)" stroke-width="1" opacity="1" d="M 634.5 701 L 635 758.5 L 634 758.5 L 634.5 701 Z " /><path fill="rgb(254,204,209)" stroke="rgb(254,204,209)" stroke-width="1" opacity="1" d="M 888.5 825 L 949 825.5 L 888.5 826 L 888.5 825 Z " /><path fill="rgb(254,204,209)" stroke="rgb(254,204,209)" stroke-width="1" opacity="1" d="M 950.5 830 L 951 945.5 L 950 945.5 L 950.5 830 Z " /><path fill="rgb(254,204,209)" stroke="rgb(254,204,209)" stroke-width="1" opacity="1" d="M 194.5 888 L 256 888.5 L 194.5 889 L 194.5 888 Z " /><path fill="rgb(254,204,209)" stroke="rgb(254,204,209)" stroke-width="1" opacity="1" d="M 572.5 888 L 571 890.5 L 572 891.5 L 572 943.5 L 571 945.5 L 572 949.5 Q 571.3 951.8 567.5 951 L 562.5 950 L 553.5 951 L 548.5 950 L 537.5 951 L 532.5 950 L 521.5 951 L 516.5 950 L 511.5 951 L 509 950.5 L 509 889 L 571.5 889 L 572.5 888 Z " /><path fill="rgb(254,204,209)" stroke="rgb(254,204,209)" stroke-width="1" opacity="1" d="M 950.5 948 L 950 949.5 Q 950.8 952.1 947.5 951 L 947.5 950 L 950.5 948 Z " /><path fill="rgb(254,204,209)" stroke="rgb(254,204,209)" stroke-width="1" opacity="1" d="M 194.5 949 L 195.5 950 L 249 950.5 L 194 951 L 194.5 949 Z " /><path fill="rgb(254,204,209)" stroke="rgb(254,204,209)" stroke-width="1" opacity="1" d="M 250.5 950 L 256 950.5 L 250.5 951 L 250.5 950 Z " /><path fill="rgb(254,204,209)" stroke="rgb(254,204,209)" stroke-width="1" opacity="1" d="M 888.5 950 L 946 950.5 L 888 951 L 887.5 953 L 887 951.5 L 888.5 950 Z " /><path fill="rgb(254,204,209)" stroke="rgb(254,204,209)" stroke-width="1" opacity="1" d="M 257.5 1013 L 381 1013.5 L 257.5 1014 L 257.5 1013 Z " /><path fill="rgb(254,204,209)" stroke="rgb(254,204,209)" stroke-width="1" opacity="1" d="M 762.5 1013 L 888 1013.5 L 762.5 1014 L 761.5 1015 L 762.5 1013 Z " /><path fill="rgb(254,204,209)" stroke="rgb(254,204,209)" stroke-width="1" opacity="1" d="M 383.5 1015 L 384 1074.5 L 383 1074.5 L 383.5 1015 Z " /><path fill="rgb(17,179,205)" stroke="rgb(17,179,205)" stroke-width="1" opacity="1" d="M 4 4 L 1204 4 L 1204 1204 L 336.5 1204 L 335.5 1203 L 4 1203 L 4 4 Z M 5 5 L 5 1201 L 336 1201 L 337 1202 L 1201 1202 L 1202 1201 L 1202 5 L 5 5 Z " /><path fill="rgb(17,179,205)" stroke="rgb(17,179,205)" stroke-width="1" opacity="1" d="M 129.5 64 L 256.5 64 L 258 65.5 L 259 67.5 L 259 128 L 320 128.5 L 259.5 129 L 256 128 L 256 66 L 130 66 L 129 68.5 L 129 445.5 L 130 446.5 L 130 507.5 L 129 508.5 L 129 698.5 L 130 699.5 L 130 887.5 L 129 888.5 L 129 949.5 L 130 952 L 192 952 L 192 1013.5 L 193.5 1014 L 194.5 1015 L 256 1015 L 256 1077.5 L 256.5 1078 L 888 1078 L 888 1017.5 L 889 1015 L 949.5 1015 L 952 1014 L 952 952 L 1013.5 952 L 1014 950.5 L 1015 949.5 L 1015 889.5 L 1016.5 888 L 1077.5 888 L 1078 887.5 L 1078 67 L 888.5 67 L 888 67.5 L 888 127.5 L 887 130 L 825.5 130 L 825 131.5 L 824 132.5 L 824 191.5 L 822.5 193 L 762 193 L 762 252.5 L 761 256 L 384.5 256 L 384 253 L 635.5 253 L 636.5 254 L 759 254 L 759 194.5 L 760 192 L 762.5 191 L 820.5 191 L 822 189.5 L 822 130.5 L 824.5 128 L 885 128 L 885 75.5 L 886 71.5 L 885 69.5 L 888.5 64 L 1076.5 64 L 1079 66.5 L 1079 887.5 L 1076.5 890 L 1072.5 889 L 1071.5 890 L 1017 890 L 1017 950.5 L 1014.5 953 L 953 953 L 953 1014.5 L 950.5 1017 L 890 1017 L 890 1075.5 L 889 1079 L 255.5 1079 L 253 1076.5 L 253 1017 L 193.5 1017 L 192 1014 L 190 1013.5 L 190 953 L 129.5 953 L 128 951.5 L 128 65.5 L 129.5 64 Z " /><path fill="rgb(17,179,205)" stroke="rgb(17,179,205)" stroke-width="1" opacity="1" d="M 320 190 L 381.5 190 L 384 192.5 L 383.5 194 L 381.5 192 L 320 192 L 320 190 Z " /><path fill="rgb(247,248,245)" stroke="rgb(247,248,245)" stroke-width="1" opacity="1" d="M 194 131 L 196.5 132 L 197.5 131 L 256 131 L 256 192.5 L 254.5 193 L 250.5 194 L 248.5 193 L 246.5 194 L 244.5 193 L 242.5 194 L 240.5 193 L 239.5 194 L 195.5 194 L 194 192.5 L 194 131 Z M 199 132 L 198 133 L 195 134 L 195 191 L 197 192 Q 201 191 203 193 L 205 192 L 254 192 L 254 134 L 253 132 L 251 133 L 248 132 L 201 132 L 199 132 Z " /><path fill="rgb(247,248,245)" stroke="rgb(247,248,245)" stroke-width="1" opacity="1" d="M 901.5 132 L 905 132.5 L 901.5 133 L 901.5 132 Z " /><path fill="rgb(247,248,245)" stroke="rgb(247,248,245)" stroke-width="1" opacity="1" d="M 917.5 132 L 921 132.5 L 917.5 133 L 917.5 132 Z " /><path fill="rgb(247,248,245)" stroke="rgb(247,248,245)" stroke-width="1" opacity="1" d="M 933.5 132 L 937 132.5 L 933.5 133 L 933.5 132 Z " /><path fill="rgb(247,248,245)" stroke="rgb(247,248,245)" stroke-width="1" opacity="1" d="M 949.5 132 L 953 132.5 L 949.5 133 L 949.5 132 Z " /><path fill="rgb(247,248,245)" stroke="rgb(247,248,245)" stroke-width="1" opacity="1" d="M 965.5 132 L 969 132.5 L 965.5 133 L 965.5 132 Z " /><path fill="rgb(247,248,245)" stroke="rgb(247,248,245)" stroke-width="1" opacity="1" d="M 981.5 132 L 985 132.5 L 981.5 133 L 981.5 132 Z " /><path fill="rgb(247,248,245)" stroke="rgb(247,248,245)" stroke-width="1" opacity="1" d="M 997.5 132 L 1001 132.5 L 997.5 133 L 997.5 132 Z " /><path fill="rgb(247,248,245)" stroke="rgb(247,248,245)" stroke-width="1" opacity="1" d="M 1011.5 132 L 1014 132.5 L 1013 133.5 L 1013 191.5 L 1012 194 L 1009.5 193 L 1008.5 194 L 891.5 194 L 889 193.5 L 890.5 191 L 891.5 192 L 1012 192 L 1012 133.5 L 1011.5 132 Z " /><path fill="rgb(247,248,245)" stroke="rgb(247,248,245)" stroke-width="1" opacity="1" d="M 1013.5 193 L 1014 195.5 L 1013 195.5 L 1013.5 193 Z " /><path fill="rgb(247,248,245)" stroke="rgb(247,248,245)" stroke-width="1" opacity="1" d="M 257.5 194 L 319 194 L 319 256 L 317 255.5 L 317 195 L 259.5 195 L 257 195.5 L 257 254.5 L 258.5 255 L 262 256.5 L 259.5 257 L 256 255.5 L 256 195.5 L 257.5 194 Z " /><path fill="rgb(247,248,245)" stroke="rgb(247,248,245)" stroke-width="1" opacity="1" d="M 887.5 194 L 888 320 L 825 320 L 825 195 L 886.5 195 L 887.5 194 Z M 826 196 L 826 319 L 887 319 L 887 196 L 826 196 Z " /><path fill="rgb(247,248,245)" stroke="rgb(247,248,245)" stroke-width="1" opacity="1" d="M 1013.5 198 L 1014 435.5 L 1013 435.5 L 1013.5 198 Z " /><path fill="rgb(247,248,245)" stroke="rgb(247,248,245)" stroke-width="1" opacity="1" d="M 312.5 255 L 316 256.5 L 263.5 257 L 263.5 256 L 311.5 256 L 312.5 255 Z " /><path fill="rgb(247,248,245)" stroke="rgb(247,248,245)" stroke-width="1" opacity="1" d="M 320 257 L 380.5 257 L 381 258.5 L 382 259.5 L 382 316.5 L 381 319 L 320.5 319 L 320 317 L 372.5 317 L 373.5 318 L 375.5 317 L 379.5 317 L 381 316.5 L 381 259 L 320.5 259 L 320 257 Z " /><path fill="rgb(247,248,245)" stroke="rgb(247,248,245)" stroke-width="1" opacity="1" d="M 571.5 383 L 571 384.5 L 570.5 446 L 570 384.5 L 571.5 383 Z " /><path fill="rgb(247,248,245)" stroke="rgb(247,248,245)" stroke-width="1" opacity="1" d="M 510 384 L 512 384.5 L 511 385.5 L 511 445.5 L 509.5 447 L 507 446.5 L 510 446 L 510 384 Z " /><path fill="rgb(247,248,245)" stroke="rgb(247,248,245)" stroke-width="1" opacity="1" d="M 1013.5 441 L 1014 445.5 L 1013 445.5 L 1013.5 441 Z " /><path fill="rgb(247,248,245)" stroke="rgb(247,248,245)" stroke-width="1" opacity="1" d="M 572.5 446 L 635 446.5 L 572.5 447 L 572.5 446 Z " /><path fill="rgb(247,248,245)" stroke="rgb(247,248,245)" stroke-width="1" opacity="1" d="M 633.5 448 L 634 508.5 L 633 508.5 L 633.5 448 Z " /><path fill="rgb(247,248,245)" stroke="rgb(247,248,245)" stroke-width="1" opacity="1" d="M 446.5 507 L 447 509.5 L 445.5 511 L 384.5 511 L 384.5 510 L 445.5 510 L 446.5 507 Z " /><path fill="rgb(247,248,245)" stroke="rgb(247,248,245)" stroke-width="1" opacity="1" d="M 697.5 571 L 698 573.5 L 696 574.5 L 697.5 571 Z " /><path fill="rgb(247,248,245)" stroke="rgb(247,248,245)" stroke-width="1" opacity="1" d="M 696.5 576 L 697 632.5 L 698 635.5 L 696 634.5 L 696.5 576 Z " /><path fill="rgb(247,248,245)" stroke="rgb(247,248,245)" stroke-width="1" opacity="1" d="M 446.5 635 L 447 700.5 L 446 700.5 L 446.5 635 Z " /><path fill="rgb(247,248,245)" stroke="rgb(247,248,245)" stroke-width="1" opacity="1" d="M 320.5 637 L 383 637.5 L 322 638 L 321.5 697 L 321 638.5 L 320.5 637 Z " /><path fill="rgb(247,248,245)" stroke="rgb(247,248,245)" stroke-width="1" opacity="1" d="M 825 637 L 888 637.5 L 887 638.5 L 886.5 697 L 886 638 L 826 638 L 826 696.5 L 825 696.5 L 825 637 Z " /><path fill="rgb(247,248,245)" stroke="rgb(247,248,245)" stroke-width="1" opacity="1" d="M 636.5 696 L 638 696.5 L 635 698 L 634 701.5 L 634 758.5 L 635 760.5 L 633.5 762 L 447.5 762 L 446.5 760 L 447.5 761 L 633 761 L 633 698.5 L 634.5 697 L 636.5 696 Z " /><path fill="rgb(247,248,245)" stroke="rgb(247,248,245)" stroke-width="1" opacity="1" d="M 640.5 696 L 697.5 696 L 698 698 L 694.5 697 L 640.5 697 L 640.5 696 Z " /><path fill="rgb(247,248,245)" stroke="rgb(247,248,245)" stroke-width="1" opacity="1" d="M 826.5 698 L 888 698.5 L 826.5 699 L 826.5 698 Z " /><path fill="rgb(247,248,245)" stroke="rgb(247,248,245)" stroke-width="1" opacity="1" d="M 382.5 762 L 445 762 L 445 824.5 L 444 824.5 L 444 764.5 L 443.5 764 L 260.5 764 L 260.5 763 L 381.5 763 L 382.5 762 Z " /><path fill="rgb(247,248,245)" stroke="rgb(247,248,245)" stroke-width="1" opacity="1" d="M 636.5 762 L 698 762.5 L 695.5 764 L 640.5 764 Q 639.3 761.8 638 764.5 L 637.5 825 L 637 763.5 L 636.5 762 Z " /><path fill="rgb(247,248,245)" stroke="rgb(247,248,245)" stroke-width="1" opacity="1" d="M 258.5 763 L 259 888 L 256.5 889 L 257 887.5 L 257 824.5 L 258 823.5 L 258.5 763 Z " /><path fill="rgb(247,248,245)" stroke="rgb(247,248,245)" stroke-width="1" opacity="1" d="M 762.5 763 L 825 763.5 L 762.5 764 L 762.5 763 Z " /><path fill="rgb(247,248,245)" stroke="rgb(247,248,245)" stroke-width="1" opacity="1" d="M 885.5 763 L 887 763.5 L 887 823.5 L 888 826 L 890 826.5 L 888.5 827 L 886 824.5 L 886 764.5 L 885.5 763 Z " /><path fill="rgb(247,248,245)" stroke="rgb(247,248,245)" stroke-width="1" opacity="1" d="M 446.5 825 L 509 825.5 L 508 826.5 L 508 887.5 L 509 888.5 L 509 951 L 572 951 L 572 889.5 L 573 889.5 L 573 950.5 L 571.5 952 L 510 952 L 510 1014.5 L 509 1014.5 L 509 951.5 L 508 950.5 L 508 893.5 L 507 892.5 L 508 889.5 L 507 887.5 L 507 826 L 446.5 826 L 446.5 825 Z " /><path fill="rgb(247,248,245)" stroke="rgb(247,248,245)" stroke-width="1" opacity="1" d="M 573.5 825 L 636 825.5 L 573.5 826 L 573.5 825 Z " /><path fill="rgb(247,248,245)" stroke="rgb(247,248,245)" stroke-width="1" opacity="1" d="M 891.5 826 L 950 826 L 950 948.5 L 948.5 950 L 888.5 950 L 887 951.5 L 887 1012.5 L 884.5 1013 L 884.5 1012 L 886 1011.5 L 886 951.5 L 887 949 L 943.5 949 L 944.5 948 L 949 949 L 949 827 L 891.5 827 L 891.5 826 Z " /><path fill="rgb(247,248,245)" stroke="rgb(247,248,245)" stroke-width="1" opacity="1" d="M 574.5 827 L 575 887.5 L 574 887.5 L 574.5 827 Z " /><path fill="rgb(247,248,245)" stroke="rgb(247,248,245)" stroke-width="1" opacity="1" d="M 194.5 889 L 196 891.5 L 195 892.5 L 195 943.5 L 195 945.5 L 197.5 949 Q 202.3 950.3 203.5 948 L 204.5 949 L 257 949 Q 256.3 952.1 259 951.5 L 259 1011.5 L 259.5 1013 L 257 1012.5 L 257 951.5 L 255.5 950 L 195.5 950 L 194 948.5 L 194.5 889 Z " /><path fill="rgb(247,248,245)" stroke="rgb(247,248,245)" stroke-width="1" opacity="1" d="M 446.5 949 L 505 949.5 L 446.5 950 L 446.5 949 Z " /><path fill="rgb(247,248,245)" stroke="rgb(247,248,245)" stroke-width="1" opacity="1" d="M 574.5 949 L 635 949.5 L 574.5 950 L 574.5 949 Z " /><path fill="rgb(247,248,245)" stroke="rgb(247,248,245)" stroke-width="1" opacity="1" d="M 262.5 1012 L 378 1012.5 L 262.5 1013 L 262.5 1012 Z " /><path fill="rgb(247,248,245)" stroke="rgb(247,248,245)" stroke-width="1" opacity="1" d="M 379.5 1012 Q 383.3 1011.3 384 1013.5 L 383.5 1015 L 379.5 1013 L 379.5 1012 Z " /><path fill="rgb(247,248,245)" stroke="rgb(247,248,245)" stroke-width="1" opacity="1" d="M 762.5 1012 L 764 1012.5 L 761.5 1014 L 762.5 1012 Z " /><path fill="rgb(247,248,245)" stroke="rgb(247,248,245)" stroke-width="1" opacity="1" d="M 765.5 1012 L 883 1012.5 L 765.5 1013 L 765.5 1012 Z " /><path fill="rgb(247,248,245)" stroke="rgb(247,248,245)" stroke-width="1" opacity="1" d="M 760.5 1022 L 761 1072.5 L 760 1072.5 L 760.5 1022 Z " /><path fill="rgb(247,248,245)" stroke="rgb(247,248,245)" stroke-width="1" opacity="1" d="M 383.5 1075 L 384 1077 L 761 1076.5 L 760.5 1075 L 762 1078 L 383.5 1078 L 383.5 1075 Z " /><path fill="rgb(0,0,0)" stroke="rgb(0,0,0)" stroke-width="1" opacity="1" d="M 889.5 67 L 1074.5 67 L 1077 68 L 1077 886.5 L 1075.5 888 L 1015 888 L 1015 825 L 951 825 L 951 762 L 888 762 L 888 637.5 Q 890.2 636.3 887.5 635 L 825 635 L 825 572 L 699 572 L 699 509 L 636 509 L 636 446 L 573 446 L 573 383.5 L 572 382.5 L 572 320 L 634.5 320 L 636 318.5 L 636 257 L 762 257 L 762 194 L 825 194 L 825 383 L 888 383 L 888 445.5 L 888.5 446 L 1015 446 L 1015 130 L 888 130 L 888 68.5 L 889.5 67 Z " /><path fill="rgb(0,0,0)" stroke="rgb(0,0,0)" stroke-width="1" opacity="1" d="M 825 131 L 888 131 L 888 193 L 825 193 L 825 131 Z " /><path fill="rgb(0,0,0)" stroke="rgb(0,0,0)" stroke-width="1" opacity="1" d="M 131 446 L 193 446 L 193 509 L 130.5 509 L 130 507.5 L 131 506.5 L 131 446 Z " /><path fill="rgb(0,0,0)" stroke="rgb(0,0,0)" stroke-width="1" opacity="1" d="M 320 572 L 381.5 572 L 383 573.5 L 383 635 L 320 635 L 320 572 Z " /><path fill="rgb(0,0,0)" stroke="rgb(0,0,0)" stroke-width="1" opacity="1" d="M 193 636 L 320 636 L 320 699 L 383 699 L 383 762 L 257 762 L 257 699 L 194.5 699 L 193 697.5 L 193 636 Z " /><path fill="rgb(0,0,0)" stroke="rgb(0,0,0)" stroke-width="1" opacity="1" d="M 699 636 L 825 636 L 825 762 L 762 762 L 762 699 L 699 699 L 699 636 Z " /><path fill="rgb(0,0,0)" stroke="rgb(0,0,0)" stroke-width="1" opacity="1" d="M 130.5 699 L 193 699 L 193 762 L 256 762 L 256 825 L 193 825 L 193 886.5 L 193.5 888 L 130 887.5 L 131 886.5 L 131 700.5 L 130.5 699 Z " /><path fill="rgb(0,0,0)" stroke="rgb(0,0,0)" stroke-width="1" opacity="1" d="M 446 762 L 635 762 L 635 825 L 572 825 L 572 888 L 509.5 888 L 510 886.5 L 510 825 L 446 825 L 446 762 Z " /><path fill="rgb(0,64,127)" stroke="rgb(0,64,127)" stroke-width="1" opacity="1" d="M 6.5 0 L 8.5 1 L 1201.5 1 L 1203 0.5 Q 1202.2 3.5 1206 2 L 1206 4 L 1203.5 3 L 3 3 L 2.5 1147 L 1 1143.5 L 1 1096.5 L 0 1094.5 L 1 1093.5 L 1 4.5 L 2 2 L 6.5 0 Z " /><path fill="rgb(0,64,127)" stroke="rgb(0,64,127)" stroke-width="1" opacity="1" d="M 825.5 130 L 888 130.5 L 825.5 131 L 825.5 130 Z " /><path fill="rgb(0,64,127)" stroke="rgb(0,64,127)" stroke-width="1" opacity="1" d="M 130.5 446 L 131 506.5 L 130 506.5 L 130.5 446 Z " /><path fill="rgb(0,64,127)" stroke="rgb(0,64,127)" stroke-width="1" opacity="1" d="M 193.5 698 L 194 700.5 L 193 700.5 L 193.5 698 Z " /><path fill="rgb(0,64,127)" stroke="rgb(0,64,127)" stroke-width="1" opacity="1" d="M 130.5 700 L 131 886.5 L 130 886.5 L 130.5 700 Z " /><path fill="rgb(0,64,127)" stroke="rgb(0,64,127)" stroke-width="1" opacity="1" d="M 509.5 825 L 510 886.5 L 509 886.5 L 509.5 825 Z " /><path fill="rgb(0,64,127)" stroke="rgb(0,64,127)" stroke-width="1" opacity="1" d="M 335.5 1204 L 352 1204.5 L 335.5 1205 L 335.5 1204 Z " /><path fill="rgb(0,64,128)" stroke="rgb(0,64,128)" stroke-width="1" opacity="1" d="M 0 0 L 6 0.5 L 2 2 L 1 4.5 L 0.5 1094 L 0 0 Z " /><path fill="rgb(0,64,128)" stroke="rgb(0,64,128)" stroke-width="1" opacity="1" d="M 8.5 0 L 1202 0.5 L 8.5 1 L 8.5 0 Z " /><path fill="rgb(0,64,128)" stroke="rgb(0,64,128)" stroke-width="1" opacity="1" d="M 1203 0 L 1208 0 L 1208 2.5 L 1208 4.5 L 1208 1208 L 0 1208 L 0.5 1096 L 1 1143.5 Q 4.3 1147.2 3 1155.5 L 2 1157.5 L 3 1159.5 L 2 1161.5 L 3 1163.5 L 2 1165.5 L 3 1166.5 L 3 1201.5 L 4 1204 L 334.5 1204 L 335.5 1205 L 351.5 1205 L 354.5 1204 L 356.5 1204 L 1204 1204 L 1204 4.5 Q 1206.8 5.1 1206 2 Q 1201.9 3.3 1203 0 Z " /><path fill="rgb(151,153,148)" stroke="rgb(151,153,148)" stroke-width="1" opacity="1" d="M 133.5 66 L 252.5 66 L 256 67.5 L 131.5 68 L 130.5 69 L 131.5 67 L 133.5 66 Z " /><path fill="rgb(151,153,148)" stroke="rgb(151,153,148)" stroke-width="1" opacity="1" d="M 257.5 129 L 258.5 131 Q 255.7 131.7 257.5 129 Z " /><path fill="rgb(151,153,148)" stroke="rgb(151,153,148)" stroke-width="1" opacity="1" d="M 887.5 129 L 888.5 131 L 887.5 129 Z " /><path fill="rgb(151,153,148)" stroke="rgb(151,153,148)" stroke-width="1" opacity="1" d="M 317.5 130 L 320 131.5 L 320 191.5 L 321.5 193 L 322.5 192 L 375.5 192 L 382 194.5 L 380.5 194 L 319.5 194 L 318 192.5 L 319 191.5 L 319 132.5 L 317.5 130 Z " /><path fill="rgb(151,153,148)" stroke="rgb(151,153,148)" stroke-width="1" opacity="1" d="M 1011.5 130 L 1015 131.5 L 1013.5 131 Q 1010.5 131.5 1011.5 130 Z " /><path fill="rgb(151,153,148)" stroke="rgb(151,153,148)" stroke-width="1" opacity="1" d="M 1014.5 133 L 1015 192.5 L 1014 192.5 L 1014.5 133 Z " /><path fill="rgb(151,153,148)" stroke="rgb(151,153,148)" stroke-width="1" opacity="1" d="M 826.5 193 L 888 193.5 L 826.5 194 L 826.5 193 Z " /><path fill="rgb(151,153,148)" stroke="rgb(151,153,148)" stroke-width="1" opacity="1" d="M 381.5 254 L 384 255.5 L 383.5 258 L 382.5 257 L 320 256.5 L 383 255.5 L 381.5 254 Z " /><path fill="rgb(151,153,148)" stroke="rgb(151,153,148)" stroke-width="1" opacity="1" d="M 633.5 256 Q 635.8 255.3 635 257.5 L 633.5 256 Z " /><path fill="rgb(151,153,148)" stroke="rgb(151,153,148)" stroke-width="1" opacity="1" d="M 825 320 L 888 320 L 888 383 L 825 383 L 825 320 Z " /><path fill="rgb(151,153,148)" stroke="rgb(151,153,148)" stroke-width="1" opacity="1" d="M 571.5 381 L 572 383 L 511 382.5 L 570.5 382 L 571.5 381 Z " /><path fill="rgb(151,153,148)" stroke="rgb(151,153,148)" stroke-width="1" opacity="1" d="M 889 383 L 951 383 L 951 446 L 888 445.5 L 889 444.5 L 889 383 Z " /><path fill="rgb(151,153,148)" stroke="rgb(151,153,148)" stroke-width="1" opacity="1" d="M 130.5 443 L 132 445.5 L 130 446 L 130.5 443 Z " /><path fill="rgb(151,153,148)" stroke="rgb(151,153,148)" stroke-width="1" opacity="1" d="M 635.5 446 L 636 508.5 L 635 508.5 L 635.5 446 Z " /><path fill="rgb(151,153,148)" stroke="rgb(151,153,148)" stroke-width="1" opacity="1" d="M 382.5 511 L 383 572 L 381 571.5 L 382 570.5 L 382.5 511 Z " /><path fill="rgb(151,153,148)" stroke="rgb(151,153,148)" stroke-width="1" opacity="1" d="M 256 572 L 259 572.5 L 256.5 574 L 256 572 Z " /><path fill="rgb(151,153,148)" stroke="rgb(151,153,148)" stroke-width="1" opacity="1" d="M 761.5 624 L 762 626.5 L 761 626.5 L 761.5 624 Z " /><path fill="rgb(151,153,148)" stroke="rgb(151,153,148)" stroke-width="1" opacity="1" d="M 761.5 628 L 762 634.5 L 761 634.5 L 761.5 628 Z " /><path fill="rgb(151,153,148)" stroke="rgb(151,153,148)" stroke-width="1" opacity="1" d="M 444.5 698 Q 446.8 697.3 446 699.5 L 444.5 698 Z " /><path fill="rgb(151,153,148)" stroke="rgb(151,153,148)" stroke-width="1" opacity="1" d="M 698.5 700 L 699 762 L 696 761.5 L 698 761 L 698.5 700 Z " /><path fill="rgb(151,153,148)" stroke="rgb(151,153,148)" stroke-width="1" opacity="1" d="M 950.5 824 L 952 825.5 L 952 952 L 889 951.5 L 951 951 L 951 825.5 L 950.5 824 Z " /><path fill="rgb(151,153,148)" stroke="rgb(151,153,148)" stroke-width="1" opacity="1" d="M 256.5 825 L 257 887.5 L 256 887.5 L 256.5 825 Z " /><path fill="rgb(151,153,148)" stroke="rgb(151,153,148)" stroke-width="1" opacity="1" d="M 572.5 825 L 573 887.5 L 571 888.5 L 572 887.5 L 572.5 825 Z " /><path fill="rgb(151,153,148)" stroke="rgb(151,153,148)" stroke-width="1" opacity="1" d="M 1013.5 888 L 1014 949.5 L 1012.5 951 L 953.5 951 L 953.5 950 L 1011.5 950 L 1013 948.5 L 1013.5 888 Z " /><path fill="rgb(151,153,148)" stroke="rgb(151,153,148)" stroke-width="1" opacity="1" d="M 130.5 947 L 131 949.5 L 130 949.5 L 130.5 947 Z " /><path fill="rgb(151,153,148)" stroke="rgb(151,153,148)" stroke-width="1" opacity="1" d="M 132.5 950 L 255.5 951 L 257 952.5 L 256.5 1015 L 255.5 1014 L 195 1013.5 L 256 1013 L 256 952 L 194 952 L 193.5 1012 L 192 1010.5 L 192 960.5 L 192 958.5 L 193 953.5 L 192 951 L 132.5 951 L 132.5 950 Z " /><path fill="rgb(151,153,148)" stroke="rgb(151,153,148)" stroke-width="1" opacity="1" d="M 446 952 L 509 952 L 509 1012.5 L 507.5 1014 L 446 1014 L 446 952 Z " /><path fill="rgb(151,153,148)" stroke="rgb(151,153,148)" stroke-width="1" opacity="1" d="M 573 952 L 635 952 L 635 1014 L 573 1014 L 573 952 Z " /><path fill="rgb(151,153,148)" stroke="rgb(151,153,148)" stroke-width="1" opacity="1" d="M 950.5 953 L 951 1012.5 L 949.5 1014 L 889.5 1014 L 888.5 1015 L 888 1013 L 948.5 1013 L 950 1011.5 L 950.5 953 Z " /><path fill="rgb(151,153,148)" stroke="rgb(151,153,148)" stroke-width="1" opacity="1" d="M 382.5 1015 L 383 1077 L 379 1076.5 L 382 1076 L 382.5 1015 Z " /><path fill="rgb(151,153,148)" stroke="rgb(151,153,148)" stroke-width="1" opacity="1" d="M 887.5 1016 L 888 1075.5 L 885.5 1077 L 885.5 1076 L 887 1075.5 L 887.5 1016 Z " /><path fill="rgb(151,153,148)" stroke="rgb(151,153,148)" stroke-width="1" opacity="1" d="M 256.5 1075 L 260 1076.5 L 256 1077 L 256.5 1075 Z " /><path fill="rgb(151,153,148)" stroke="rgb(151,153,148)" stroke-width="1" opacity="1" d="M 368.5 1076 L 373 1076.5 L 368.5 1077 L 368.5 1076 Z " /><path fill="rgb(151,153,148)" stroke="rgb(151,153,148)" stroke-width="1" opacity="1" d="M 762.5 1076 L 763.5 1078 L 762.5 1076 Z " /><path fill="rgb(253,254,253)" stroke="rgb(253,254,253)" stroke-width="1" opacity="1" d="M 889.5 131 L 890.5 133 L 893 131.5 L 891 134.5 L 891 177.5 L 892 179.5 L 891 180.5 L 891 191 L 1011.5 191 L 1012.5 192 L 1014 191.5 Q 1014.8 193.8 1012.5 193 L 1011.5 192 L 891.5 192 L 890.5 191 L 889.5 193 L 889 191.5 L 890 190.5 L 890 133.5 L 889.5 131 Z " /><path fill="rgb(253,254,253)" stroke="rgb(253,254,253)" stroke-width="1" opacity="1" d="M 198.5 132 L 200.5 132 L 247.5 132 L 249 133.5 Q 247.3 137.8 245.5 135 Q 242.9 135.7 244 133 L 242 133 L 240.5 136 L 240 133 L 236 135 Q 237 132 234 133 L 231.5 137 L 228 134.5 Q 228.7 131.9 226 133 Q 227.3 137.1 224 136 Q 225.3 131.9 222 133 Q 223 136 220 135 Q 221 132 218 133 L 215.5 137 L 212 134.5 Q 212.7 131.9 210 133 L 210 136 L 204 136 Q 205.3 131.9 202 133 Q 203.6 137.9 198 136 Q 199 133 196 134 L 196 191 L 253 191 L 252 186.5 L 253 184.5 L 252 182.5 L 253 181.5 L 253 135.5 L 251 132.5 L 252.5 132 L 254 133.5 L 254 192 L 204.5 192 L 202.5 193 Q 201.2 190.7 196.5 192 L 195 192.5 L 195 190.5 L 195 133.5 L 197.5 133 L 198.5 132 Z " /><path fill="rgb(253,254,253)" stroke="rgb(253,254,253)" stroke-width="1" opacity="1" d="M 249 136 Q 252 134.8 251 138.5 L 251.5 140 L 248 139.5 L 250 138.5 L 249 136 Z " /><path fill="rgb(253,254,253)" stroke="rgb(253,254,253)" stroke-width="1" opacity="1" d="M 206 137 Q 209.3 135.9 208 140 Q 204.7 141.1 206 137 Z " /><path fill="rgb(253,254,253)" stroke="rgb(253,254,253)" stroke-width="1" opacity="1" d="M 240.5 138 L 241.5 140 Q 238.7 140.7 240.5 138 Z " /><path fill="rgb(253,254,253)" stroke="rgb(253,254,253)" stroke-width="1" opacity="1" d="M 200.5 140 Q 203.3 141.3 201 142.5 Q 201.7 145.5 198 144 L 200.5 140 Z " /><path fill="rgb(253,254,253)" stroke="rgb(253,254,253)" stroke-width="1" opacity="1" d="M 214 180 Q 219.2 178.3 218 182 Q 212.8 183.7 214 180 Z " /><path fill="rgb(253,254,253)" stroke="rgb(253,254,253)" stroke-width="1" opacity="1" d="M 902 180 Q 907.2 178.3 906 182 Q 900.8 183.7 902 180 Z " /><path fill="rgb(253,254,253)" stroke="rgb(253,254,253)" stroke-width="1" opacity="1" d="M 918 180 Q 923.2 178.3 922 182 Q 916.8 183.7 918 180 Z " /><path fill="rgb(253,254,253)" stroke="rgb(253,254,253)" stroke-width="1" opacity="1" d="M 934 180 Q 939.2 178.3 938 182 Q 932.8 183.7 934 180 Z " /><path fill="rgb(253,254,253)" stroke="rgb(253,254,253)" stroke-width="1" opacity="1" d="M 950 180 Q 955.2 178.3 954 182 Q 948.8 183.7 950 180 Z " /><path fill="rgb(253,254,253)" stroke="rgb(253,254,253)" stroke-width="1" opacity="1" d="M 966 180 Q 971.2 178.3 970 182 Q 964.8 183.7 966 180 Z " /><path fill="rgb(253,254,253)" stroke="rgb(253,254,253)" stroke-width="1" opacity="1" d="M 982 180 Q 987.2 178.3 986 182 Q 980.8 183.7 982 180 Z " /><path fill="rgb(253,254,253)" stroke="rgb(253,254,253)" stroke-width="1" opacity="1" d="M 240 182 Q 243 181 242 184 Q 239 185 240 182 Z " /><path fill="rgb(253,254,253)" stroke="rgb(253,254,253)" stroke-width="1" opacity="1" d="M 1008 182 Q 1013.2 180.3 1012 184 Q 1006.8 185.7 1008 182 Z " /><path fill="rgb(253,254,253)" stroke="rgb(253,254,253)" stroke-width="1" opacity="1" d="M 257.5 195 L 259.5 195 L 317 195 L 317 256 L 312.5 255 L 311.5 256 L 259.5 256 L 257 255 L 257.5 195 Z M 260 196 L 259 206 L 261 206 Q 262 209 259 209 L 259 251 L 262 252 L 258 253 Q 259 255 261 253 L 264 255 L 268 254 L 270 254 Q 275 256 277 253 Q 278 256 284 254 L 286 254 Q 291 256 293 253 Q 294 256 300 254 L 302 254 Q 307 256 309 253 L 313 254 L 316 253 L 315 250 L 316 248 L 316 204 L 315 203 L 316 200 L 315 196 L 313 197 L 312 196 L 265 196 L 262 197 L 260 196 Z " /><path fill="rgb(253,254,253)" stroke="rgb(253,254,253)" stroke-width="1" opacity="1" d="M 886.5 196 L 887 318.5 L 885.5 318 L 826 317.5 L 829 316.5 L 826 315.5 L 828.5 315 L 831 315.5 L 830.5 317 L 886 317 L 886.5 196 Z " /><path fill="rgb(253,254,253)" stroke="rgb(253,254,253)" stroke-width="1" opacity="1" d="M 264 198 Q 267 197 266 200 L 268.5 200 L 268.5 198 Q 273.3 196.7 272 200 L 269 200.5 L 269.5 202 L 264.5 204 Q 263.4 201.3 260 202 Q 258.8 199 262.5 200 L 265.5 201 L 265.5 200 Q 262.9 200.7 264 198 Z " /><path fill="rgb(253,254,253)" stroke="rgb(253,254,253)" stroke-width="1" opacity="1" d="M 275.5 198 Q 279.9 196.5 279 199.5 L 276.5 200 L 275.5 198 Z " /><path fill="rgb(253,254,253)" stroke="rgb(253,254,253)" stroke-width="1" opacity="1" d="M 280 198 L 285 198 L 285 199.5 L 280 199.5 L 280 198 Z " /><path fill="rgb(253,254,253)" stroke="rgb(253,254,253)" stroke-width="1" opacity="1" d="M 294 198 Q 298.1 196.7 297 200 Q 292.9 201.3 294 198 Z " /><path fill="rgb(253,254,253)" stroke="rgb(253,254,253)" stroke-width="1" opacity="1" d="M 829.5 199 L 830 202 Q 833 201 832 204 L 830 204 L 830 202 Q 827.3 203.1 828 200.5 L 829.5 199 Z " /><path fill="rgb(253,254,253)" stroke="rgb(253,254,253)" stroke-width="1" opacity="1" d="M 280.5 202 L 281.5 204 L 278 203.5 L 280.5 202 Z " /><path fill="rgb(253,254,253)" stroke="rgb(253,254,253)" stroke-width="1" opacity="1" d="M 298.5 202 L 299.5 204 L 296 203.5 L 298.5 202 Z " /><path fill="rgb(253,254,253)" stroke="rgb(253,254,253)" stroke-width="1" opacity="1" d="M 304.5 202 Q 307.3 203.4 306 208 L 304 208 L 304 204 L 302.5 204 L 302.5 203 L 304.5 202 Z " /><path fill="rgb(253,254,253)" stroke="rgb(253,254,253)" stroke-width="1" opacity="1" d="M 826 203 Q 828.7 201.9 828 204.5 L 826 205.5 L 826 203 Z " /><path fill="rgb(253,254,253)" stroke="rgb(253,254,253)" stroke-width="1" opacity="1" d="M 270 206 Q 273 205 272 208 Q 269 209 270 206 Z " /><path fill="rgb(253,254,253)" stroke="rgb(253,254,253)" stroke-width="1" opacity="1" d="M 304 242 Q 307 241 306 244 Q 303 245 304 242 Z " /><path fill="rgb(253,254,253)" stroke="rgb(253,254,253)" stroke-width="1" opacity="1" d="M 263.5 251 L 266 251.5 L 263.5 252 L 263.5 251 Z " /><path fill="rgb(253,254,253)" stroke="rgb(253,254,253)" stroke-width="1" opacity="1" d="M 267.5 251 L 270 251.5 L 267.5 252 L 267.5 251 Z " /><path fill="rgb(253,254,253)" stroke="rgb(253,254,253)" stroke-width="1" opacity="1" d="M 271.5 251 L 274 251.5 L 271.5 252 L 271.5 251 Z " /><path fill="rgb(253,254,253)" stroke="rgb(253,254,253)" stroke-width="1" opacity="1" d="M 275.5 251 L 278 251.5 L 275.5 252 L 275.5 251 Z " /><path fill="rgb(253,254,253)" stroke="rgb(253,254,253)" stroke-width="1" opacity="1" d="M 279.5 251 L 282 251.5 L 279.5 252 L 279.5 251 Z " /><path fill="rgb(253,254,253)" stroke="rgb(253,254,253)" stroke-width="1" opacity="1" d="M 283.5 251 L 286 251.5 L 283.5 252 L 283.5 251 Z " /><path fill="rgb(253,254,253)" stroke="rgb(253,254,253)" stroke-width="1" opacity="1" d="M 287.5 251 L 290 251.5 L 287.5 252 L 287.5 251 Z " /><path fill="rgb(253,254,253)" stroke="rgb(253,254,253)" stroke-width="1" opacity="1" d="M 291.5 251 L 294 251.5 L 291.5 252 L 291.5 251 Z " /><path fill="rgb(253,254,253)" stroke="rgb(253,254,253)" stroke-width="1" opacity="1" d="M 295.5 251 L 298 251.5 L 295.5 252 L 295.5 251 Z " /><path fill="rgb(253,254,253)" stroke="rgb(253,254,253)" stroke-width="1" opacity="1" d="M 299.5 251 L 302 251.5 L 299.5 252 L 299.5 251 Z " /><path fill="rgb(253,254,253)" stroke="rgb(253,254,253)" stroke-width="1" opacity="1" d="M 303.5 251 L 306 251.5 L 303.5 252 L 303.5 251 Z " /><path fill="rgb(253,254,253)" stroke="rgb(253,254,253)" stroke-width="1" opacity="1" d="M 307.5 251 L 310 251.5 L 307.5 252 L 307.5 251 Z " /><path fill="rgb(253,254,253)" stroke="rgb(253,254,253)" stroke-width="1" opacity="1" d="M 311.5 251 L 314 251.5 L 311.5 252 L 311.5 251 Z " /><path fill="rgb(253,254,253)" stroke="rgb(253,254,253)" stroke-width="1" opacity="1" d="M 320.5 259 L 381 259 L 381 317 L 378.5 318 L 375.5 317 L 373.5 318 L 372.5 317 L 320 317 L 321 314.5 L 321 260.5 L 320.5 259 Z M 322 260 L 322 315 L 325 316 L 327 316 L 348 316 L 349 315 L 350 316 L 364 316 L 366 316 L 370 315 L 370 314 Q 367 315 368 312 Q 374 310 372 315 L 376 316 L 379 312 L 377 309 L 379 308 L 379 269 L 378 268 L 379 260 Q 376 259 377 263 L 376 263 L 376 260 L 322 260 Z " /><path fill="rgb(253,254,253)" stroke="rgb(253,254,253)" stroke-width="1" opacity="1" d="M 372 262 Q 374.7 260.9 374 263.5 L 376 267 L 374 267 L 374 264 Q 371 265 372 262 Z " /><path fill="rgb(253,254,253)" stroke="rgb(253,254,253)" stroke-width="1" opacity="1" d="M 371.5 306 L 372 308 Q 374.7 309.1 374 306.5 L 375 306.5 L 374 310 Q 371.3 311.1 372 308.5 L 371.5 306 Z " /><path fill="rgb(253,254,253)" stroke="rgb(253,254,253)" stroke-width="1" opacity="1" d="M 336 312 L 341 312 L 341 313.5 L 336 313.5 L 336 312 Z " /><path fill="rgb(253,254,253)" stroke="rgb(253,254,253)" stroke-width="1" opacity="1" d="M 352 312 L 357 312 L 357 313.5 L 352 313.5 L 352 312 Z " /><path fill="rgb(253,254,253)" stroke="rgb(253,254,253)" stroke-width="1" opacity="1" d="M 374 312 Q 377 311 376 314 Q 373 315 374 312 Z " /><path fill="rgb(253,254,253)" stroke="rgb(253,254,253)" stroke-width="1" opacity="1" d="M 512.5 384 L 570 384.5 L 512 385 L 512 446.5 L 510.5 448 L 448 448 L 448 509.5 L 447 512 L 385 512 L 385 630.5 L 432.5 630 Q 435.8 628.9 435 631.5 L 432.5 632 L 385 632.5 L 437.5 633 L 440.5 632 L 442 632.5 L 442 630 L 447.5 630 L 446.5 632 L 445 632.5 L 447 633 L 448 635.5 L 446.5 635 L 383.5 635 L 383 632.5 L 384 631.5 L 384 575.5 L 383 573.5 L 384 572.5 L 384 511 L 445.5 511 L 447 509.5 L 447 447 L 509.5 447 L 511 445.5 L 511 385.5 L 512.5 384 Z " /><path fill="rgb(253,254,253)" stroke="rgb(253,254,253)" stroke-width="1" opacity="1" d="M 635.5 511 L 695.5 511 L 696.5 512 L 698 511.5 L 697 512.5 L 697 568.5 L 698 570.5 L 696 572.5 L 696 576.5 L 696 633.5 L 694.5 636 L 694 634.5 L 695 630.5 L 693.5 631 L 692 630.5 L 694 630 L 695 627.5 L 695 574.5 L 694 574.5 Q 694.7 577.1 692 576 Q 690.9 573.3 693.5 574 Q 696.5 573.5 696 569.5 L 696 567.5 L 695 564.5 L 696 563.5 L 696 512 L 635.5 512 L 635.5 511 Z " /><path fill="rgb(253,254,253)" stroke="rgb(253,254,253)" stroke-width="1" opacity="1" d="M 436 624 Q 442 622 440 628 L 438 628 L 436 624 Z " /><path fill="rgb(253,254,253)" stroke="rgb(253,254,253)" stroke-width="1" opacity="1" d="M 400 626 Q 403 625 402 628 Q 399 629 400 626 Z " /><path fill="rgb(253,254,253)" stroke="rgb(253,254,253)" stroke-width="1" opacity="1" d="M 406 626 Q 411.2 624.3 410 628 Q 404.8 629.7 406 626 Z " /><path fill="rgb(253,254,253)" stroke="rgb(253,254,253)" stroke-width="1" opacity="1" d="M 414 626 Q 419.2 624.3 418 628 Q 412.8 629.7 414 626 Z " /><path fill="rgb(253,254,253)" stroke="rgb(253,254,253)" stroke-width="1" opacity="1" d="M 422 626 Q 427.2 624.3 426 628 Q 420.8 629.7 422 626 Z " /><path fill="rgb(253,254,253)" stroke="rgb(253,254,253)" stroke-width="1" opacity="1" d="M 430 626 Q 433 625 432 628 Q 429 629 430 626 Z " /><path fill="rgb(253,254,253)" stroke="rgb(253,254,253)" stroke-width="1" opacity="1" d="M 690 634 Q 693 633 692 636 Q 689 637 690 634 Z " /><path fill="rgb(253,254,253)" stroke="rgb(253,254,253)" stroke-width="1" opacity="1" d="M 696.5 635 Q 699.3 636.3 697 637.5 L 697 694.5 L 698 695.5 L 640.5 696 L 638.5 697 L 636.5 696 L 633 698.5 L 633 760.5 L 630.5 761 L 630.5 760 Q 632.8 760.8 632 758.5 L 631 757.5 L 631 704.5 L 632 702 L 630 702 L 628 698 L 633 698 L 633 696 L 630 694.5 L 633.5 694 Q 634.7 696.3 639.5 695 L 640.5 694 L 687.5 694 L 688.5 693 L 692 694 Q 691 691 694 692 L 695.5 695 L 696 689.5 L 694 689.5 L 694 688 L 696 687.5 L 696 638 L 692 640 Q 690.9 637.3 693.5 638 L 696 637 L 696.5 635 Z " /><path fill="rgb(253,254,253)" stroke="rgb(253,254,253)" stroke-width="1" opacity="1" d="M 380.5 636 L 383 636.5 L 380.5 637 L 380.5 636 Z " /><path fill="rgb(253,254,253)" stroke="rgb(253,254,253)" stroke-width="1" opacity="1" d="M 368.5 638 L 370.5 638 Q 373.1 637.3 372 640 Q 366.4 641.7 368.5 638 Z " /><path fill="rgb(253,254,253)" stroke="rgb(253,254,253)" stroke-width="1" opacity="1" d="M 376 638 Q 379 637 378 640 Q 375 641 376 638 Z " /><path fill="rgb(253,254,253)" stroke="rgb(253,254,253)" stroke-width="1" opacity="1" d="M 380 638 L 383 638.5 L 383 695.5 L 382 698 Q 379.9 696.4 374.5 697 L 372.5 697 L 328.5 697 L 327.5 698 L 323.5 697 L 322 697.5 L 322.5 696 L 377.5 696 L 378 694.5 L 380 694.5 L 381 688.5 L 380 687.5 L 380 638 Z " /><path fill="rgb(253,254,253)" stroke="rgb(253,254,253)" stroke-width="1" opacity="1" d="M 826.5 638 L 827.5 640 L 826.5 638 Z " /><path fill="rgb(253,254,253)" stroke="rgb(253,254,253)" stroke-width="1" opacity="1" d="M 634 688 Q 639.2 686.3 638 690 Q 632.8 691.7 634 688 Z " /><path fill="rgb(253,254,253)" stroke="rgb(253,254,253)" stroke-width="1" opacity="1" d="M 828.5 688 L 831.5 696 L 882.5 695 Q 886.9 693.5 886 696.5 L 887 696.5 L 887.5 695 L 888 698 L 825 697.5 L 828 696 L 828.5 688 Z " /><path fill="rgb(253,254,253)" stroke="rgb(253,254,253)" stroke-width="1" opacity="1" d="M 880 688 Q 883 687 882 690 Q 879 691 880 688 Z " /><path fill="rgb(253,254,253)" stroke="rgb(253,254,253)" stroke-width="1" opacity="1" d="M 368 690 Q 371 689 370 692 Q 367 693 368 690 Z " /><path fill="rgb(253,254,253)" stroke="rgb(253,254,253)" stroke-width="1" opacity="1" d="M 372 690 Q 375 689 374 692 Q 371 693 372 690 Z " /><path fill="rgb(253,254,253)" stroke="rgb(253,254,253)" stroke-width="1" opacity="1" d="M 376 690 Q 379 689 378 692 Q 375 693 376 690 Z " /><path fill="rgb(253,254,253)" stroke="rgb(253,254,253)" stroke-width="1" opacity="1" d="M 447.5 698 L 448 760.5 L 447 760.5 L 447.5 698 Z " /><path fill="rgb(253,254,253)" stroke="rgb(253,254,253)" stroke-width="1" opacity="1" d="M 624 700 Q 627 699 626 702 Q 623 703 624 700 Z " /><path fill="rgb(253,254,253)" stroke="rgb(253,254,253)" stroke-width="1" opacity="1" d="M 628 752 Q 631.7 750.8 630 756 Q 626.3 757.2 628 752 Z " /><path fill="rgb(253,254,253)" stroke="rgb(253,254,253)" stroke-width="1" opacity="1" d="M 264.5 762 L 267 762.5 L 264.5 763 L 264.5 762 Z " /><path fill="rgb(253,254,253)" stroke="rgb(253,254,253)" stroke-width="1" opacity="1" d="M 698.5 762 L 763 762.5 L 761.5 764 L 703.5 764 L 701 763 L 700 765.5 L 701 767.5 L 700 767.5 Q 700.7 764.9 698 766 Q 699 769 696 768 L 695.5 766 L 640.5 766 L 640.5 765 L 689.5 765 L 691.5 764 L 697.5 766 L 696.5 763 L 698.5 762 Z " /><path fill="rgb(253,254,253)" stroke="rgb(253,254,253)" stroke-width="1" opacity="1" d="M 823.5 762 L 887 762.5 L 885 763.5 L 886 764.5 L 886 824.5 L 889 827.5 L 887 828.5 L 887.5 830 L 886 830.5 L 886.5 832 Q 882.8 833 884 830 Q 887.3 831.3 886 826.5 L 884 826.5 Q 886.3 825.2 885 820.5 L 884 816.5 L 885 815.5 L 885 768.5 L 885 766.5 Q 886.1 763.2 883.5 764 L 881.5 764 L 830 764.5 L 832 765.5 L 828.5 767 L 826 766 L 824.5 763 L 823.5 762 Z " /><path fill="rgb(253,254,253)" stroke="rgb(253,254,253)" stroke-width="1" opacity="1" d="M 262 764 Q 265 763 264 766 Q 261 767 262 764 Z " /><path fill="rgb(253,254,253)" stroke="rgb(253,254,253)" stroke-width="1" opacity="1" d="M 370 764 L 375.5 764 L 376 765.5 L 372 768 L 370 764 Z " /><path fill="rgb(253,254,253)" stroke="rgb(253,254,253)" stroke-width="1" opacity="1" d="M 382.5 764 L 382 765.5 L 383 767.5 L 378 768 L 379.5 765 Q 381 767.5 382.5 764 Z " /><path fill="rgb(253,254,253)" stroke="rgb(253,254,253)" stroke-width="1" opacity="1" d="M 390.5 764 L 392.5 765 L 441 765.5 L 434 766 Q 435 769 432 768 L 431.5 766 L 392 766 Q 393 769 390 768 Q 391.2 764.3 386 766 Q 387 769 384 768 Q 382.2 762.7 389.5 765 L 390.5 764 Z " /><path fill="rgb(253,254,253)" stroke="rgb(253,254,253)" stroke-width="1" opacity="1" d="M 821 764 L 824 765.5 L 821 766 L 821 764 Z " /><path fill="rgb(253,254,253)" stroke="rgb(253,254,253)" stroke-width="1" opacity="1" d="M 268.5 765 L 270 768 Q 264.8 769.7 266 766 L 268.5 765 Z " /><path fill="rgb(253,254,253)" stroke="rgb(253,254,253)" stroke-width="1" opacity="1" d="M 760 765 L 762 765.5 L 760 766.5 L 760 765 Z " /><path fill="rgb(253,254,253)" stroke="rgb(253,254,253)" stroke-width="1" opacity="1" d="M 764.5 765 L 766 768 Q 762.5 769.1 764.5 765 Z " /><path fill="rgb(253,254,253)" stroke="rgb(253,254,253)" stroke-width="1" opacity="1" d="M 262 816 Q 265 815 264 818 Q 261 819 262 816 Z " /><path fill="rgb(253,254,253)" stroke="rgb(253,254,253)" stroke-width="1" opacity="1" d="M 266 818 Q 269 817 268 820 Q 265 821 266 818 Z " /><path fill="rgb(253,254,253)" stroke="rgb(253,254,253)" stroke-width="1" opacity="1" d="M 262.5 820 L 263.5 822 Q 260.7 822.7 262.5 820 Z " /><path fill="rgb(253,254,253)" stroke="rgb(253,254,253)" stroke-width="1" opacity="1" d="M 882 822 Q 885.3 820.9 884 825 Q 880.7 826.1 882 822 Z " /><path fill="rgb(253,254,253)" stroke="rgb(253,254,253)" stroke-width="1" opacity="1" d="M 262 824 L 264 824 L 266 828 L 262 830 L 264 826 Q 261 827 262 824 Z " /><path fill="rgb(253,254,253)" stroke="rgb(253,254,253)" stroke-width="1" opacity="1" d="M 270 824 Q 273 823 272 826 Q 269 827 270 824 Z " /><path fill="rgb(253,254,253)" stroke="rgb(253,254,253)" stroke-width="1" opacity="1" d="M 500 826 Q 503 825 502 828 Q 499 829 500 826 Z " /><path fill="rgb(253,254,253)" stroke="rgb(253,254,253)" stroke-width="1" opacity="1" d="M 508.5 826 L 509 828.5 L 508 828.5 L 508.5 826 Z " /><path fill="rgb(253,254,253)" stroke="rgb(253,254,253)" stroke-width="1" opacity="1" d="M 574.5 826 L 575.5 828 L 573 827.5 L 574.5 826 Z " /><path fill="rgb(253,254,253)" stroke="rgb(253,254,253)" stroke-width="1" opacity="1" d="M 890.5 826 L 896 827.5 Q 891.8 827.3 890.5 830 L 890 827.5 L 890.5 826 Z " /><path fill="rgb(253,254,253)" stroke="rgb(253,254,253)" stroke-width="1" opacity="1" d="M 260.5 827 L 260 828.5 L 259.5 882 L 259 828.5 L 260.5 827 Z " /><path fill="rgb(253,254,253)" stroke="rgb(253,254,253)" stroke-width="1" opacity="1" d="M 506.5 827 L 507 830 L 505 829.5 L 506.5 827 Z " /><path fill="rgb(253,254,253)" stroke="rgb(253,254,253)" stroke-width="1" opacity="1" d="M 926.5 827 L 932 827.5 L 926.5 828 L 926.5 827 Z " /><path fill="rgb(253,254,253)" stroke="rgb(253,254,253)" stroke-width="1" opacity="1" d="M 936.5 827 L 948.5 827 L 949 827.5 L 949 949 L 944.5 948 L 943.5 949 L 887 949 L 886 951.5 L 886 1012 L 883.5 1013 L 882.5 1012 L 765.5 1012 L 763.5 1012 L 761 1013.5 L 760 1016.5 L 760 1022.5 L 760 1072.5 L 761 1074.5 L 760.5 1077 L 384.5 1077 L 384 1076.5 L 384 1013.5 Q 383.3 1011.3 379.5 1012 L 377.5 1012 L 262.5 1012 L 260.5 1013 L 259 1011.5 L 259 955.5 L 260 955.5 L 260 1011 L 382.5 1011 L 384 1010.5 L 385 1012.5 L 385 1073 L 389.5 1074 L 390.5 1073 L 754.5 1073 L 755.5 1072 L 758 1073 L 758 1024.5 L 759 1022.5 Q 756.3 1020.8 758 1014.5 L 759.5 1012 L 758 1012 L 758 1008 L 761.5 1009 L 763.5 1008 L 766 1008.5 Q 763.8 1009.7 766.5 1011 L 884 1010.5 L 880.5 1009 L 879.5 1010 L 768.5 1010 L 768.5 1009 L 879.5 1009 L 880.5 1008 L 885 1009.5 L 885 960.5 L 884 958.5 Q 886.3 957.3 885 952.5 L 884 952.5 L 883.5 954 L 883 951 L 885 950.5 L 882.5 950 L 881 950.5 L 882 948 Q 879 949 880 946 Q 883 945 882 948 L 884.5 948 Q 885.8 950.3 887 947.5 L 886.5 946 L 894.5 947 L 896.5 947 L 904.5 947 L 905.5 946 L 910.5 947 L 920.5 947 L 921.5 946 L 926.5 947 L 946.5 947 L 947 946.5 L 947 828 L 936.5 828 L 936.5 827 Z M 763 1010 L 763 1011 L 765 1011 L 763 1010 Z " /><path fill="rgb(253,254,253)" stroke="rgb(253,254,253)" stroke-width="1" opacity="1" d="M 268 828 Q 271 827 270 830 Q 267 831 268 828 Z " /><path fill="rgb(253,254,253)" stroke="rgb(253,254,253)" stroke-width="1" opacity="1" d="M 500 830 Q 503 829 502 832 Q 499 833 500 830 Z " /><path fill="rgb(253,254,253)" stroke="rgb(253,254,253)" stroke-width="1" opacity="1" d="M 508.5 830 L 509 884.5 L 508 884.5 L 508.5 830 Z " /><path fill="rgb(253,254,253)" stroke="rgb(253,254,253)" stroke-width="1" opacity="1" d="M 262 880 L 265 880.5 L 264 883.5 L 268 886 Q 269.4 889.7 263.5 888 L 262.5 886 Q 265.1 886.7 264 884 Q 260.3 885.2 262 880 Z " /><path fill="rgb(253,254,253)" stroke="rgb(253,254,253)" stroke-width="1" opacity="1" d="M 270 880 Q 273 879 272 882 Q 269 883 270 880 Z " /><path fill="rgb(253,254,253)" stroke="rgb(253,254,253)" stroke-width="1" opacity="1" d="M 266 882 Q 269 881 268 884 Q 265 885 266 882 Z " /><path fill="rgb(253,254,253)" stroke="rgb(253,254,253)" stroke-width="1" opacity="1" d="M 496 882 Q 499 881 498 884 Q 495 885 496 882 Z " /><path fill="rgb(253,254,253)" stroke="rgb(253,254,253)" stroke-width="1" opacity="1" d="M 259.5 884 L 261 886.5 L 260.5 888 L 262 888.5 L 261.5 891 L 259 889.5 L 258.5 891 L 257.5 889 L 257 893 L 259 893.5 L 256 894 L 255.5 892 L 199.5 892 L 197.5 892 L 196 892.5 L 200 893.5 Q 198.8 896.3 197.5 894 L 196 894.5 L 196 943.5 L 195 943.5 L 195 892.5 L 196 890.5 L 195.5 889 L 256.5 889 L 259 888 L 259.5 884 Z " /><path fill="rgb(253,254,253)" stroke="rgb(253,254,253)" stroke-width="1" opacity="1" d="M 505.5 887 L 507.5 888 L 509 887.5 L 507 890.5 L 507.5 892 L 505 890.5 L 505 888.5 L 505.5 887 Z " /><path fill="rgb(253,254,253)" stroke="rgb(253,254,253)" stroke-width="1" opacity="1" d="M 573 888 Q 576.3 886.7 575 891.5 L 575 895.5 L 575 943.5 L 576 945.5 L 575 947.5 L 575.5 949 Q 573.3 948.3 574 950.5 L 573 950.5 L 574 948.5 L 573 947.5 L 573 888 Z " /><path fill="rgb(253,254,253)" stroke="rgb(253,254,253)" stroke-width="1" opacity="1" d="M 250.5 893 L 254 894 Q 255 897 252 896 Q 253.1 893.3 250.5 894 L 250.5 893 Z " /><path fill="rgb(253,254,253)" stroke="rgb(253,254,253)" stroke-width="1" opacity="1" d="M 507.5 893 L 508 950.5 L 507 950.5 L 505 946.5 L 507 946 L 507 896.5 L 506 895.5 L 507.5 893 Z " /><path fill="rgb(253,254,253)" stroke="rgb(253,254,253)" stroke-width="1" opacity="1" d="M 253.5 944 L 254 946 L 252 945.5 L 253.5 944 Z " /><path fill="rgb(253,254,253)" stroke="rgb(253,254,253)" stroke-width="1" opacity="1" d="M 195.5 945 L 196.5 947 L 199.5 946 L 206.5 947 L 216.5 947 L 217.5 946 L 222.5 947 L 248.5 947 L 249.5 946 L 254.5 947 L 256 946.5 Q 255.3 948.8 257.5 948 Q 258.8 950.3 260 947.5 Q 260.8 945.3 258.5 946 L 257 946.5 L 259.5 945 L 264 946.5 L 261 948.5 L 263 949.5 L 260.5 950 L 259 949.5 L 260 953.5 L 259 953.5 L 259 951 Q 255.9 951.8 256.5 949 L 204.5 949 L 202.5 949 Q 196.3 950.3 195 946.5 L 195.5 945 Z " /><path fill="rgb(253,254,253)" stroke="rgb(253,254,253)" stroke-width="1" opacity="1" d="M 445.5 946 L 446.5 948 L 444 947.5 L 445.5 946 Z " /><path fill="rgb(253,254,253)" stroke="rgb(253,254,253)" stroke-width="1" opacity="1" d="M 496.5 946 L 497.5 948 Q 494.7 948.7 496.5 946 Z " /><path fill="rgb(253,254,253)" stroke="rgb(253,254,253)" stroke-width="1" opacity="1" d="M 634.5 948 Q 636.3 951.1 638 949.5 L 637.5 952 Q 635.8 948.9 634 950.5 L 634.5 948 Z " /><path fill="rgb(253,254,253)" stroke="rgb(253,254,253)" stroke-width="1" opacity="1" d="M 505.5 949 L 504.5 951 L 505.5 949 Z " /><path fill="rgb(253,254,253)" stroke="rgb(253,254,253)" stroke-width="1" opacity="1" d="M 444.5 951 L 445 1014.5 L 444 1014.5 L 444.5 951 Z " /><path fill="rgb(253,254,253)" stroke="rgb(253,254,253)" stroke-width="1" opacity="1" d="M 510 952 Q 512.7 953.9 519.5 953 L 521.5 952 L 522.5 953 L 535.5 953 L 537.5 952 L 538.5 953 L 551.5 953 L 553.5 952 Q 555.2 954.7 561.5 953 L 562.5 952 L 571.5 952 L 571.5 953 Q 567.8 951.8 569 955.5 L 570 955.5 Q 569.3 953.3 571.5 954 L 571 955.5 L 572 957.5 L 571 958.5 L 570.5 1013 L 570 957.5 L 568 954 L 564 956 Q 565.3 953 561.5 954 L 561.5 958 L 560 958 L 559.5 956 L 512 956 L 511.5 959 Q 508.8 957.8 511 956.5 L 510 952 Z " /><path fill="rgb(253,254,253)" stroke="rgb(253,254,253)" stroke-width="1" opacity="1" d="M 637.5 953 L 638 1012.5 L 637 1012.5 L 637.5 953 Z " /><path fill="rgb(253,254,253)" stroke="rgb(253,254,253)" stroke-width="1" opacity="1" d="M 880.5 954 L 881.5 956 Q 878.7 956.7 880.5 954 Z " /><path fill="rgb(253,254,253)" stroke="rgb(253,254,253)" stroke-width="1" opacity="1" d="M 266 958 L 269 959.5 L 266 960 L 266 958 Z " /><path fill="rgb(253,254,253)" stroke="rgb(253,254,253)" stroke-width="1" opacity="1" d="M 511.5 960 L 512 1014.5 L 511 1014.5 L 511.5 960 Z " /><path fill="rgb(253,254,253)" stroke="rgb(253,254,253)" stroke-width="1" opacity="1" d="M 262 1008 L 264.5 1009 L 369.5 1009 L 371.5 1008 L 376 1009.5 L 264.5 1010 L 262 1009.5 L 262 1008 Z " /><path fill="rgb(253,254,253)" stroke="rgb(253,254,253)" stroke-width="1" opacity="1" d="M 379.5 1008 L 380 1010 L 378 1009.5 L 379.5 1008 Z " /><path fill="rgb(253,254,253)" stroke="rgb(253,254,253)" stroke-width="1" opacity="1" d="M 754 1010 Q 757 1009 756 1012 Q 753 1013 754 1010 Z " /><path fill="rgb(253,254,253)" stroke="rgb(253,254,253)" stroke-width="1" opacity="1" d="M 446.5 1016 L 512 1016.5 L 446.5 1017 L 446.5 1016 Z " /><path fill="rgb(253,254,253)" stroke="rgb(253,254,253)" stroke-width="1" opacity="1" d="M 570.5 1016 L 638 1016.5 L 570.5 1017 L 570.5 1016 Z " /><path fill="rgb(253,254,253)" stroke="rgb(253,254,253)" stroke-width="1" opacity="1" d="M 444.5 1018 L 445.5 1020 L 444.5 1018 Z " /><path fill="rgb(253,254,253)" stroke="rgb(253,254,253)" stroke-width="1" opacity="1" d="M 752 1022 Q 755 1021 754 1024 Q 751 1025 752 1022 Z " /><path fill="rgb(94,124,136)" stroke="rgb(94,124,136)" stroke-width="1" opacity="1" d="M 130 66 L 133 66.5 L 130 68.5 L 129.5 446 L 129 68.5 L 130 66 Z " /><path fill="rgb(94,124,136)" stroke="rgb(94,124,136)" stroke-width="1" opacity="1" d="M 253.5 66 L 256 66.5 L 253.5 67 L 253.5 66 Z " /><path fill="rgb(94,124,136)" stroke="rgb(94,124,136)" stroke-width="1" opacity="1" d="M 256 128 L 259.5 129 L 320 129 L 319.5 131 L 318.5 130 L 258.5 130 L 257.5 129 L 256 129.5 L 256 128 Z " /><path fill="rgb(94,124,136)" stroke="rgb(94,124,136)" stroke-width="1" opacity="1" d="M 824.5 132 L 825 191.5 L 823 192.5 L 824 191.5 L 824.5 132 Z " /><path fill="rgb(94,124,136)" stroke="rgb(94,124,136)" stroke-width="1" opacity="1" d="M 376.5 192 Q 382.8 190.8 384 194.5 L 384 254.5 L 382.5 256 L 382 253.5 L 382 194.5 L 380.5 193 Q 375.5 194 376.5 192 Z " /><path fill="rgb(94,124,136)" stroke="rgb(94,124,136)" stroke-width="1" opacity="1" d="M 1014.5 193 L 1015 445.5 L 1014 445.5 L 1014.5 193 Z " /><path fill="rgb(94,124,136)" stroke="rgb(94,124,136)" stroke-width="1" opacity="1" d="M 761.5 253 L 762 255.5 L 760.5 257 L 636.5 257 L 635.5 258 L 635 256 L 760.5 256 L 761.5 253 Z " /><path fill="rgb(94,124,136)" stroke="rgb(94,124,136)" stroke-width="1" opacity="1" d="M 572.5 383 L 573 445.5 L 572 445.5 L 572.5 383 Z " /><path fill="rgb(94,124,136)" stroke="rgb(94,124,136)" stroke-width="1" opacity="1" d="M 888.5 383 L 889 444.5 L 888 444.5 L 888.5 383 Z " /><path fill="rgb(94,124,136)" stroke="rgb(94,124,136)" stroke-width="1" opacity="1" d="M 129.5 508 Q 132.3 509.3 130 510.5 L 130 697.5 L 131.5 698 L 131.5 699 L 129 698.5 L 129.5 508 Z " /><path fill="rgb(94,124,136)" stroke="rgb(94,124,136)" stroke-width="1" opacity="1" d="M 259.5 572 L 317.5 572 L 318.5 573 L 320 572.5 L 320 635 L 382.5 635 L 383.5 636 L 446 636 L 446 698 L 383 698 L 383 636 L 320.5 636 Q 319 632.5 317.5 635 L 257.5 635 L 256 633.5 L 256 574.5 L 257.5 573 L 259.5 572 Z " /><path fill="rgb(94,124,136)" stroke="rgb(94,124,136)" stroke-width="1" opacity="1" d="M 761.5 572 L 762.5 573 L 825 573 L 825 635 L 887.5 635 L 887.5 636 L 762.5 635 L 760.5 636 L 760.5 635 L 762 634.5 L 762 573.5 L 761.5 572 Z " /><path fill="rgb(94,124,136)" stroke="rgb(94,124,136)" stroke-width="1" opacity="1" d="M 195.5 699 L 254.5 699 L 255.5 700 L 257 699.5 L 256 700.5 L 256 761.5 L 257 762.5 L 257 824.5 L 256 824.5 L 256 762 L 194 762 L 194 700.5 L 195.5 699 Z " /><path fill="rgb(94,124,136)" stroke="rgb(94,124,136)" stroke-width="1" opacity="1" d="M 698.5 699 L 762 699 L 762 762 L 699 762 L 699 700.5 L 698.5 699 Z " /><path fill="rgb(94,124,136)" stroke="rgb(94,124,136)" stroke-width="1" opacity="1" d="M 825 699 L 888 699 L 888 760.5 L 886.5 762 L 825 762 L 825 699 Z " /><path fill="rgb(94,124,136)" stroke="rgb(94,124,136)" stroke-width="1" opacity="1" d="M 635.5 762 L 636 824.5 L 635 824.5 L 635.5 762 Z " /><path fill="rgb(94,124,136)" stroke="rgb(94,124,136)" stroke-width="1" opacity="1" d="M 1014.5 825 L 1015 886.5 L 1014 886.5 L 1014.5 825 Z " /><path fill="rgb(94,124,136)" stroke="rgb(94,124,136)" stroke-width="1" opacity="1" d="M 129 888 L 131 888.5 L 130 889.5 L 130 950 L 132.5 951 L 192 951.5 L 130 952 L 129 949.5 L 129 888 Z " /><path fill="rgb(94,124,136)" stroke="rgb(94,124,136)" stroke-width="1" opacity="1" d="M 1014 888 L 1016 888.5 L 1015 889.5 L 1015 949.5 L 1014 952 L 952 952 L 952 1013.5 L 950.5 1014 L 949.5 1015 L 889 1015 L 888.5 1017 L 887.5 1015 L 889.5 1014 L 949.5 1014 L 951 1012.5 L 951 953.5 L 950 952.5 L 952 952 L 952.5 950 L 953.5 951 L 1012.5 951 L 1014 949.5 L 1014 888 Z " /><path fill="rgb(94,124,136)" stroke="rgb(94,124,136)" stroke-width="1" opacity="1" d="M 192.5 1011 L 195.5 1014 L 256 1014.5 L 194.5 1015 L 192 1014 L 192.5 1011 Z " /><path fill="rgb(94,124,136)" stroke="rgb(94,124,136)" stroke-width="1" opacity="1" d="M 887.5 1076 L 888 1078 L 764 1077.5 L 886.5 1077 L 887.5 1076 Z " /><path fill="rgb(94,124,136)" stroke="rgb(94,124,136)" stroke-width="1" opacity="1" d="M 256.5 1077 L 383 1077.5 L 256.5 1078 L 256.5 1077 Z " /><path fill="rgb(254,254,254)" stroke="rgb(254,254,254)" stroke-width="1" opacity="1" d="M 893.5 131 L 1012 131.5 L 893.5 132 L 893.5 131 Z " /><path fill="rgb(254,254,254)" stroke="rgb(254,254,254)" stroke-width="1" opacity="1" d="M 202 133 Q 205.3 131.9 204 136 L 210 136 Q 208.7 131.9 212 133 L 214.5 137 L 218 134.5 Q 217.3 131.9 220 133 Q 219 136 222 135 Q 221 132 224 133 Q 222.7 137.1 226 136 Q 224.7 131.9 228 133 L 230.5 137 L 234 134.5 Q 233.3 131.9 236 133 Q 235 136 238 135 Q 237 132 240 133 L 240.5 136 L 242 133 L 244 133 Q 242.9 135.7 245.5 135 L 246.5 136 L 249.5 133 Q 252.8 131.9 252 134.5 L 253 135.5 L 253 181.5 L 252 183.5 L 253 185.5 L 253 187.5 L 252.5 191 L 196 191 L 196 134.5 L 198 134 Q 196.8 137.7 202 136 L 202 133 Z M 249 136 L 250 139 L 248 140 L 252 140 L 251 139 Q 252 135 249 136 Z M 206 137 Q 205 141 208 140 Q 209 136 206 137 Z M 241 138 Q 239 141 242 140 L 241 138 Z M 201 140 L 198 144 Q 202 145 201 143 Q 203 141 201 140 Z M 214 180 Q 213 184 218 182 Q 219 178 214 180 Z M 240 182 Q 239 185 242 184 Q 243 181 240 182 Z " /><path fill="rgb(254,254,254)" stroke="rgb(254,254,254)" stroke-width="1" opacity="1" d="M 889.5 133 L 890 190.5 L 889 190.5 L 889.5 133 Z " /><path fill="rgb(254,254,254)" stroke="rgb(254,254,254)" stroke-width="1" opacity="1" d="M 892.5 133 L 1011.5 133 L 1012 134.5 L 1012 136.5 L 1012 181.5 L 1008 182 L 1008 184 L 1012 184 L 1012 191 L 891.5 191 L 891 190.5 L 891 180.5 L 892 178.5 L 891 177.5 L 891 134.5 L 892.5 133 Z M 902 180 Q 901 184 906 182 Q 907 178 902 180 Z M 918 180 Q 917 184 922 182 Q 923 178 918 180 Z M 934 180 Q 933 184 938 182 Q 939 178 934 180 Z M 950 180 Q 949 184 954 182 Q 955 178 950 180 Z M 966 180 Q 965 184 970 182 Q 971 178 966 180 Z M 982 180 Q 981 184 986 182 Q 987 178 982 180 Z " /><path fill="rgb(254,254,254)" stroke="rgb(254,254,254)" stroke-width="1" opacity="1" d="M 1013.5 136 L 1014 190.5 L 1013 190.5 L 1013.5 136 Z " /><path fill="rgb(254,254,254)" stroke="rgb(254,254,254)" stroke-width="1" opacity="1" d="M 827.5 194 L 830 194.5 L 827.5 195 L 827.5 194 Z " /><path fill="rgb(254,254,254)" stroke="rgb(254,254,254)" stroke-width="1" opacity="1" d="M 832.5 194 L 883 194.5 L 832.5 195 L 832.5 194 Z " /><path fill="rgb(254,254,254)" stroke="rgb(254,254,254)" stroke-width="1" opacity="1" d="M 259.5 196 L 261.5 197 L 264.5 196 L 311.5 196 L 312.5 197 L 314.5 196 L 316 199.5 L 315 202.5 L 316 203.5 L 316 247.5 L 315 249.5 L 316 252.5 L 312.5 254 L 308.5 253 Q 307 255.5 301.5 254 L 299.5 254 Q 294 255.5 292.5 253 Q 291 255.5 285.5 254 L 283.5 254 Q 278 255.5 276.5 253 Q 275 255.5 269.5 254 L 267.5 254 L 263.5 255 L 260.5 253 Q 259.3 255.2 258 252.5 L 262 251.5 L 259 251 L 259 208.5 Q 261.8 209.1 261 206 L 259 205.5 L 259.5 196 Z M 264 198 Q 263 201 266 200 Q 267 197 264 198 Z M 269 198 Q 268 201 272 200 Q 273 197 269 198 Z M 276 198 L 277 200 L 279 200 Q 280 197 276 198 Z M 280 198 L 280 200 L 285 200 L 285 198 L 280 198 Z M 294 198 Q 293 201 297 200 Q 298 197 294 198 Z M 260 200 L 260 202 Q 263 201 265 204 L 270 202 L 269 200 L 266 201 L 260 200 Z M 281 202 L 278 204 L 282 204 L 281 202 Z M 299 202 L 296 204 L 300 204 L 299 202 Z M 305 202 L 303 203 L 303 204 L 304 204 L 304 208 L 306 208 Q 307 203 305 202 Z M 270 206 Q 269 209 272 208 Q 273 205 270 206 Z M 304 242 Q 303 245 306 244 Q 307 241 304 242 Z M 264 251 L 264 252 L 266 252 L 264 251 Z M 268 251 L 268 252 L 270 252 L 268 251 Z M 272 251 L 272 252 L 274 252 L 272 251 Z M 276 251 L 276 252 L 278 252 L 276 251 Z M 280 251 L 280 252 L 282 252 L 280 251 Z M 284 251 L 284 252 L 286 252 L 284 251 Z M 288 251 L 288 252 L 290 252 L 288 251 Z M 292 251 L 292 252 L 294 252 L 292 251 Z M 296 251 L 296 252 L 298 252 L 296 251 Z M 300 251 L 300 252 L 302 252 L 300 251 Z M 304 251 L 304 252 L 306 252 L 304 251 Z M 308 251 L 308 252 L 310 252 L 308 251 Z M 312 251 L 312 252 L 314 252 L 312 251 Z " /><path fill="rgb(254,254,254)" stroke="rgb(254,254,254)" stroke-width="1" opacity="1" d="M 826 196 L 882.5 196 L 883.5 197 L 886 196 L 886 317 L 830.5 317 L 828.5 317 L 826 316.5 L 829 315.5 L 826 315 L 826 206.5 L 828 203 Q 824.3 204.2 826 199 L 828 198.5 L 826 198 L 826 196 Z M 830 199 L 828 201 Q 827 203 830 202 L 830 199 Z M 830 202 Q 829 205 832 204 Q 833 201 830 202 Z " /><path fill="rgb(254,254,254)" stroke="rgb(254,254,254)" stroke-width="1" opacity="1" d="M 320.5 260 L 321.5 315 L 322 260 L 375.5 260 L 376 262.5 L 377 262.5 Q 376 258.8 379 260 L 378 267.5 L 379 268.5 L 379 308 L 377 308.5 L 379 311.5 L 378 313.5 Q 380.3 314.8 377.5 316 L 374.5 315 Q 370.3 316.1 372 312 L 368 312 Q 366.9 314.7 369.5 314 L 369.5 315 L 365.5 316 L 363.5 316 L 349.5 316 L 348.5 315 L 347.5 316 L 326.5 316 L 324.5 316 L 322.5 315 Q 321.3 317.3 320 314.5 L 320.5 260 Z M 372 262 Q 371 265 374 264 Q 375 261 372 262 Z M 375 264 Q 372 268 376 267 L 375 264 Z M 372 308 Q 371 311 374 310 Q 375 307 372 308 Z M 336 312 L 336 314 L 341 314 L 341 312 L 336 312 Z M 352 312 L 352 314 L 357 314 L 357 312 L 352 312 Z M 374 312 Q 373 315 376 314 Q 377 311 374 312 Z " /><path fill="rgb(254,254,254)" stroke="rgb(254,254,254)" stroke-width="1" opacity="1" d="M 826.5 318 L 886 318.5 L 826.5 319 L 826.5 318 Z " /><path fill="rgb(254,254,254)" stroke="rgb(254,254,254)" stroke-width="1" opacity="1" d="M 512 385 L 570 385 L 570 446.5 L 571 446.5 L 571.5 385 L 572 447 L 635 447 L 635 510 L 697.5 510 L 697.5 511 L 635 511.5 L 696 512 L 696 563.5 L 695 565.5 L 696 567.5 L 696 569.5 L 694 573.5 L 695 574.5 L 695 627.5 L 694 629.5 L 696 637 L 694 637.5 L 696 638 L 696 687.5 L 694 688 L 694 689.5 L 696 689.5 L 695.5 695 L 694 692 Q 691 691 692 694 L 689.5 694 L 687.5 694 L 640.5 694 Q 639.3 696.3 634.5 695 L 630.5 694 L 631.5 696 Q 634.1 695.3 633 698 L 628 698 L 628 700 L 630 700 L 630 702 Q 632.7 700.9 632 703.5 L 631 704.5 L 631 757.5 L 632 760 L 629.5 761 L 627.5 761 L 448 761 L 448 698.5 L 447 695.5 L 447 636.5 L 448 635.5 L 447 633 L 445 632.5 L 448 630.5 L 442 630 L 441.5 633 L 438.5 632 L 437.5 633 L 385.5 633 L 385.5 632 L 432.5 632 L 433.5 631 L 435 631.5 Q 435.8 628.9 432.5 630 L 385 630.5 L 385 512 L 446.5 512 L 447 510.5 L 448 509.5 L 448 448 L 510.5 448 L 512 446.5 L 512 385 Z M 634 448 L 633 510 L 634 510 L 634 448 Z M 692 574 Q 691 577 694 576 Q 695 573 692 574 Z M 436 624 L 438 628 L 440 628 Q 442 622 436 624 Z M 400 626 Q 399 629 402 628 Q 403 625 400 626 Z M 406 626 Q 405 630 410 628 Q 411 624 406 626 Z M 414 626 Q 413 630 418 628 Q 419 624 414 626 Z M 422 626 Q 421 630 426 628 Q 427 624 422 626 Z M 430 626 Q 429 629 432 628 Q 433 625 430 626 Z M 690 634 Q 689 637 692 636 Q 693 633 690 634 Z M 692 638 Q 691 641 694 640 Q 695 637 692 638 Z M 634 688 Q 633 692 638 690 Q 639 686 634 688 Z M 624 700 Q 623 703 626 702 Q 627 699 624 700 Z M 628 752 Q 626 757 630 756 Q 632 751 628 752 Z " /><path fill="rgb(254,254,254)" stroke="rgb(254,254,254)" stroke-width="1" opacity="1" d="M 697.5 512 L 698 568.5 L 697 568.5 L 697.5 512 Z " /><path fill="rgb(254,254,254)" stroke="rgb(254,254,254)" stroke-width="1" opacity="1" d="M 383.5 575 L 384 631.5 L 383 631.5 L 383.5 575 Z " /><path fill="rgb(254,254,254)" stroke="rgb(254,254,254)" stroke-width="1" opacity="1" d="M 323.5 636 L 368 636.5 L 323.5 637 L 323.5 636 Z " /><path fill="rgb(254,254,254)" stroke="rgb(254,254,254)" stroke-width="1" opacity="1" d="M 370.5 636 L 380 636.5 L 370.5 637 L 370.5 636 Z " /><path fill="rgb(254,254,254)" stroke="rgb(254,254,254)" stroke-width="1" opacity="1" d="M 829.5 636 L 880 636.5 L 829.5 637 L 829.5 636 Z " /><path fill="rgb(254,254,254)" stroke="rgb(254,254,254)" stroke-width="1" opacity="1" d="M 697.5 637 L 698 694.5 L 697 694.5 L 697.5 637 Z " /><path fill="rgb(254,254,254)" stroke="rgb(254,254,254)" stroke-width="1" opacity="1" d="M 320.5 638 L 321 695.5 L 320 695.5 L 320.5 638 Z " /><path fill="rgb(254,254,254)" stroke="rgb(254,254,254)" stroke-width="1" opacity="1" d="M 322 638 L 367.5 638 Q 366.7 641.3 372 640 Q 370.8 636.3 376 638 Q 375 641 378 640 Q 377 637 380 638 L 380 687.5 L 381 689.5 L 379.5 695 L 378 694.5 L 377.5 696 L 322 696 L 322 638 Z M 368 690 Q 367 693 370 692 Q 371 689 368 690 Z M 372 690 Q 371 693 374 692 Q 375 689 372 690 Z M 376 690 Q 375 693 378 692 Q 379 689 376 690 Z " /><path fill="rgb(254,254,254)" stroke="rgb(254,254,254)" stroke-width="1" opacity="1" d="M 827.5 638 L 886 638 L 886 695 L 881.5 696 L 831.5 696 L 830 694.5 Q 831.3 689.3 828.5 688 L 828 696 L 826 695.5 L 826 639.5 L 827.5 638 Z M 880 688 Q 879 691 882 690 Q 883 687 880 688 Z " /><path fill="rgb(254,254,254)" stroke="rgb(254,254,254)" stroke-width="1" opacity="1" d="M 887.5 638 L 888 694.5 L 887 694.5 L 887.5 638 Z " /><path fill="rgb(254,254,254)" stroke="rgb(254,254,254)" stroke-width="1" opacity="1" d="M 323.5 697 L 327 697.5 L 323.5 698 L 323.5 697 Z " /><path fill="rgb(254,254,254)" stroke="rgb(254,254,254)" stroke-width="1" opacity="1" d="M 328.5 697 L 373 697.5 L 328.5 698 L 328.5 697 Z " /><path fill="rgb(254,254,254)" stroke="rgb(254,254,254)" stroke-width="1" opacity="1" d="M 374.5 697 L 380 697.5 L 374.5 698 L 374.5 697 Z " /><path fill="rgb(254,254,254)" stroke="rgb(254,254,254)" stroke-width="1" opacity="1" d="M 257.5 762 L 264 762.5 L 257.5 763 L 257.5 762 Z " /><path fill="rgb(254,254,254)" stroke="rgb(254,254,254)" stroke-width="1" opacity="1" d="M 267.5 762 L 372 762.5 L 267.5 763 L 267.5 762 Z " /><path fill="rgb(254,254,254)" stroke="rgb(254,254,254)" stroke-width="1" opacity="1" d="M 373.5 762 L 380 762.5 L 373.5 763 L 373.5 762 Z " /><path fill="rgb(254,254,254)" stroke="rgb(254,254,254)" stroke-width="1" opacity="1" d="M 765.5 762 L 816 762.5 L 765.5 763 L 765.5 762 Z " /><path fill="rgb(254,254,254)" stroke="rgb(254,254,254)" stroke-width="1" opacity="1" d="M 817.5 762 L 823 762.5 L 817.5 763 L 817.5 762 Z " /><path fill="rgb(254,254,254)" stroke="rgb(254,254,254)" stroke-width="1" opacity="1" d="M 259 764 L 262 764 Q 261 767 264 766 L 264.5 764 L 370 764 L 370 766 L 372 766 Q 370.9 768.7 373.5 768 L 376 764 L 382.5 765 Q 384 762.5 389.5 764 L 389.5 765 Q 382.2 762.7 384 768 Q 387 769 386 766 L 390 766 Q 389 769 392 768 L 392.5 766 L 432 766 Q 431 769 434 768 Q 432.9 764.5 440.5 766 L 440.5 765 L 392 764.5 L 444 764 L 444.5 826 L 445.5 767 L 446 826 L 499.5 826 Q 498.9 828.8 502 828 Q 500.6 824.3 506.5 826 L 506 827.5 L 505 829.5 L 507 830 L 506.5 888 L 505 887.5 L 506 889.5 Q 503.5 891 507 892.5 L 506 895.5 L 507 896.5 L 507 946 L 505 946.5 L 506.5 949 L 500.5 948 L 499.5 949 L 446 949.5 L 504 950.5 L 446 951 L 446 1015 L 510 1015 L 510.5 958 L 512 958.5 L 512.5 956 L 560 956 Q 558.9 958.7 561.5 958 L 561.5 954 L 564 954 Q 563 957 566 956 Q 565 953 568 954 L 568.5 956 L 569.5 953 L 570 955.5 L 570 957.5 L 570 1013.5 L 569 1014.5 L 571 1015 L 571.5 958 L 572 1015 L 636 1015 L 636 951.5 L 634.5 948 L 633.5 949 L 576.5 949 L 575 946.5 L 576 944.5 L 575 943.5 L 575 895.5 L 574 894.5 L 575 891.5 L 575 881.5 L 576 880.5 L 575 879.5 L 575 830.5 L 575.5 826 L 632.5 826 L 633 827.5 L 634 827.5 L 634 826 L 636 825.5 L 636 767.5 L 637 767.5 L 637.5 825 L 638 767.5 L 639 766.5 L 638 764 L 690 764.5 L 640 765.5 L 695.5 766 L 695.5 765 L 692 764.5 L 696.5 764 L 699.5 766 L 701.5 764 L 821 764 Q 819.8 767 823.5 766 L 823.5 764 L 826 764 Q 824.9 766.7 827.5 766 L 830.5 764 L 885 764 L 884 767.5 L 885 768.5 L 885 815.5 L 884 819.5 L 886 830 L 888 829.5 L 887.5 828 L 889.5 827 Q 891 830.5 892.5 828 L 897.5 827 L 899.5 828 Q 900.7 825.8 905.5 827 L 907.5 828 L 909.5 827 L 911.5 828 L 913.5 827 L 915.5 828 Q 916.7 825.8 921.5 827 L 923.5 828 L 925.5 827 Q 926.7 829.3 931.5 828 L 935.5 827 L 936.5 828 L 947 828 L 947 946.5 L 946.5 947 L 926.5 947 L 920.5 947 L 910.5 947 L 909.5 946 L 904.5 947 L 896.5 947 L 895.5 946 Q 894 948.5 888.5 947 L 886.5 946 L 885.5 949 L 882 948 Q 880.8 951 884.5 950 L 884.5 951 Q 881.9 950.2 883 953.5 L 884 953.5 L 884.5 952 L 885 957.5 L 884 959.5 L 885 960.5 L 885 1009.5 L 883.5 1011 L 766.5 1011 L 764.5 1011 L 762 1010.5 L 765 1009.5 L 762.5 1008 L 759.5 1010 L 759.5 1008 L 758 1008 L 758 1012 L 760.5 1011 L 758 1014.5 L 759 1023.5 L 758 1024.5 L 758 1072.5 L 758.5 1074 L 755.5 1072 L 754.5 1073 L 390.5 1073 L 389.5 1074 L 385 1073 L 385 1012.5 L 383.5 1010 L 382.5 1011 L 260 1011 L 260 955.5 L 259 954.5 L 260 951.5 L 257.5 948 Q 255.3 948.8 256 946.5 L 254.5 947 L 249.5 946 L 248.5 947 L 222.5 947 L 216.5 947 L 206.5 947 L 205.5 946 L 199.5 946 L 196.5 947 L 196 894 L 198.5 895 L 199.5 893 L 196 892.5 L 198.5 891 L 199.5 892 L 256 892 Q 254.8 895 258.5 894 L 258.5 893 Q 255.5 893.9 257 889.5 L 258 889.5 L 258.5 891 L 259.5 889 Q 260.8 891.3 262 888.5 L 260 887.5 L 260 885.5 L 259 882.5 L 260 881.5 L 260 828.5 L 259 826 L 261 825.5 L 259 825 L 259 764 Z M 269 765 L 266 766 Q 265 770 270 768 L 269 765 Z M 382 765 Q 380 768 379 766 L 378 768 L 383 768 L 382 765 Z M 760 765 L 760 767 L 762 766 L 760 765 Z M 765 765 Q 762 769 766 768 L 765 765 Z M 696 766 Q 695 769 698 768 Q 699 765 696 766 Z M 262 816 Q 261 819 264 818 Q 265 815 262 816 Z M 266 818 Q 265 821 268 820 Q 269 817 266 818 Z M 263 820 Q 261 823 264 822 L 263 820 Z M 882 822 Q 881 826 884 825 Q 885 821 882 822 Z M 262 824 Q 261 827 264 826 Q 265 823 262 824 Z M 270 824 Q 269 827 272 826 Q 273 823 270 824 Z M 264 826 Q 263 829 266 828 Q 267 825 264 826 Z M 262 828 Q 261 831 264 830 Q 265 827 262 828 Z M 268 828 Q 267 831 270 830 Q 271 827 268 828 Z M 500 830 Q 499 833 502 832 Q 503 829 500 830 Z M 884 830 L 884 832 L 887 832 L 884 830 Z M 262 880 Q 260 885 264 884 L 265 881 L 262 880 Z M 270 880 Q 269 883 272 882 Q 273 879 270 880 Z M 266 882 Q 265 885 268 884 Q 269 881 266 882 Z M 496 882 Q 495 885 498 884 Q 499 881 496 882 Z M 265 884 Q 265 887 263 886 L 264 888 Q 269 890 268 886 L 265 884 Z M 252 894 Q 251 897 254 896 Q 255 893 252 894 Z M 254 944 L 252 946 L 254 946 L 254 944 Z M 260 946 L 260 948 Q 258 949 261 950 L 263 950 L 261 949 L 264 947 L 260 946 Z M 497 946 Q 495 949 498 948 L 497 946 Z M 880 946 Q 879 949 882 948 Q 883 945 880 946 Z M 445 951 L 444 1015 L 445 1015 L 445 951 Z M 638 951 L 637 1015 L 639 1015 L 638 1014 L 638 951 Z M 881 954 Q 879 957 882 956 L 881 954 Z M 266 958 L 266 960 L 269 960 L 266 958 Z M 512 960 L 511 1015 L 512 1015 L 512 960 Z M 262 1008 L 262 1010 L 264 1009 L 262 1008 Z M 371 1008 L 370 1009 L 265 1009 L 265 1010 L 376 1010 L 371 1008 Z M 380 1008 L 378 1010 L 380 1010 L 380 1008 Z M 883 1008 L 881 1010 L 884 1010 L 883 1008 Z M 769 1009 L 769 1010 L 880 1010 L 769 1009 Z M 754 1010 Q 753 1013 756 1012 Q 757 1009 754 1010 Z M 447 1016 L 447 1017 L 512 1017 L 447 1016 Z M 571 1016 L 571 1017 L 638 1017 L 571 1016 Z M 752 1022 Q 751 1025 754 1024 Q 755 1021 752 1022 Z " /><path fill="rgb(254,254,254)" stroke="rgb(254,254,254)" stroke-width="1" opacity="1" d="M 257.5 765 L 258 821.5 L 257 821.5 L 257.5 765 Z " /><path fill="rgb(254,254,254)" stroke="rgb(254,254,254)" stroke-width="1" opacity="1" d="M 573.5 828 L 574 883.5 L 573 883.5 L 573.5 828 Z " /><path fill="rgb(254,254,254)" stroke="rgb(254,254,254)" stroke-width="1" opacity="1" d="M 573.5 885 L 574 887.5 L 573 887.5 L 573.5 885 Z " /><path fill="rgb(254,254,254)" stroke="rgb(254,254,254)" stroke-width="1" opacity="1" d="M 574.5 950 L 634 950.5 L 574.5 951 L 574.5 950 Z " /><path fill="rgb(254,254,254)" stroke="rgb(254,254,254)" stroke-width="1" opacity="1" d="M 512.5 952 L 520 952.5 L 512.5 953 L 512.5 952 Z " /><path fill="rgb(254,254,254)" stroke="rgb(254,254,254)" stroke-width="1" opacity="1" d="M 522.5 952 L 536 952.5 L 522.5 953 L 522.5 952 Z " /><path fill="rgb(254,254,254)" stroke="rgb(254,254,254)" stroke-width="1" opacity="1" d="M 538.5 952 L 552 952.5 L 538.5 953 L 538.5 952 Z " /><path fill="rgb(254,254,254)" stroke="rgb(254,254,254)" stroke-width="1" opacity="1" d="M 554.5 952 L 562 952.5 L 554.5 953 L 554.5 952 Z " /><path fill="rgb(1,187,210)" stroke="rgb(1,187,210)" stroke-width="1" opacity="1" d="M 5 5 L 1202 5 L 1202 1200.5 L 1200.5 1202 L 336.5 1202 L 335.5 1201 L 5 1201 L 5 5 Z M 130 64 L 128 66 L 128 952 L 130 953 L 190 953 L 190 1014 L 192 1014 L 194 1017 L 253 1017 L 253 1077 L 256 1079 L 889 1079 L 890 1076 L 890 1017 L 951 1017 L 953 1015 L 953 953 L 1015 953 L 1017 951 L 1017 890 L 1072 890 L 1073 889 L 1077 890 L 1079 888 L 1079 67 L 1077 64 L 889 64 L 885 70 L 886 72 L 885 76 L 885 128 L 825 128 L 822 131 L 822 190 L 821 191 L 763 191 L 760 192 L 759 195 L 759 254 L 637 254 L 636 253 L 384 253 L 384 193 L 382 190 L 320 190 L 320 128 L 259 128 L 259 68 L 258 66 L 257 64 L 130 64 Z " /><path fill="rgb(233,108,2)" stroke="rgb(233,108,2)" stroke-width="1" opacity="1" d="M 131.5 68 L 256 68 L 256 130 L 193.5 130 L 193 130.5 L 193 446 L 255.5 446 Q 256.5 446 256 441.5 L 256 439.5 L 257 437.5 L 257 383 L 320 383 L 320 320 L 383 320 L 383 258.5 L 384 256 L 632.5 256 L 636 258 L 636 318.5 L 634.5 320 L 572 320 L 572 380.5 L 570.5 382 L 511.5 382 L 509 383 L 509 444.5 L 507.5 446 L 446 446 L 446 507.5 L 444.5 509 L 383 509 L 382 511.5 L 382 570.5 L 380.5 572 L 256 572 L 256 636 L 193 636 L 193 695.5 L 192 698 L 189.5 699 L 132.5 699 L 130 695.5 L 130 511.5 L 131 509 L 193 509 L 193 446 L 132.5 446 L 131 444.5 L 130 442.5 L 130 69.5 L 131.5 68 Z " /><path fill="rgb(233,108,2)" stroke="rgb(233,108,2)" stroke-width="1" opacity="1" d="M 259.5 130 L 316.5 130 L 319 132.5 L 319 191.5 L 317.5 193 L 257 193 L 257 131 L 259.5 130 Z " /><path fill="rgb(233,108,2)" stroke="rgb(233,108,2)" stroke-width="1" opacity="1" d="M 320 194 L 380.5 194 L 382 195.5 L 382 253.5 L 381 254.5 L 381.5 256 L 320 256 L 320 194 Z " /><path fill="rgb(233,108,2)" stroke="rgb(233,108,2)" stroke-width="1" opacity="1" d="M 699 572 L 760.5 572 L 761 574.5 L 762 575.5 L 762 623.5 L 761 626.5 L 761 628.5 Q 762.5 634.5 759.5 636 L 700.5 636 L 699 634.5 L 699 572 Z " /><path fill="rgb(233,108,2)" stroke="rgb(233,108,2)" stroke-width="1" opacity="1" d="M 384 698 L 443.5 698 L 446 700.5 L 446 760.5 L 444.5 761 L 443.5 762 L 384 762 L 383 759.5 L 383 700.5 L 384 698 Z " /><path fill="rgb(233,108,2)" stroke="rgb(233,108,2)" stroke-width="1" opacity="1" d="M 636 699 L 698 699 L 698 761 L 695.5 762 L 636 762 L 636 699 Z " /><path fill="rgb(233,108,2)" stroke="rgb(233,108,2)" stroke-width="1" opacity="1" d="M 888 762 L 949.5 762 L 951 763.5 L 951 823.5 L 949.5 825 L 889.5 825 L 888 823.5 L 888 762 Z " /><path fill="rgb(233,108,2)" stroke="rgb(233,108,2)" stroke-width="1" opacity="1" d="M 194.5 825 L 256 825 L 256 888 L 194.5 888 L 193 886.5 L 193 826.5 L 194.5 825 Z " /><path fill="rgb(233,108,2)" stroke="rgb(233,108,2)" stroke-width="1" opacity="1" d="M 952 825 L 1012.5 825 L 1014 826.5 L 1013 948.5 L 1011.5 950 L 952 950 L 952 825 Z " /><path fill="rgb(233,108,2)" stroke="rgb(233,108,2)" stroke-width="1" opacity="1" d="M 131 888 L 193 888 L 193 950 L 131.5 950 L 131 947.5 L 130 946.5 L 130 890.5 L 131 888 Z " /><path fill="rgb(233,108,2)" stroke="rgb(233,108,2)" stroke-width="1" opacity="1" d="M 194 952 L 256 952 L 256 1013 L 194 1013 L 194 952 Z " /><path fill="rgb(233,108,2)" stroke="rgb(233,108,2)" stroke-width="1" opacity="1" d="M 888 952 L 950 952 L 950 1011.5 L 948.5 1013 L 888 1013 L 888 952 Z " /><path fill="rgb(233,108,2)" stroke="rgb(233,108,2)" stroke-width="1" opacity="1" d="M 256 1015 L 382 1015 L 382 1076 L 373.5 1077 L 368.5 1076 L 367.5 1077 L 260.5 1077 L 256 1074.5 L 256 1015 Z " /><path fill="rgb(233,108,2)" stroke="rgb(233,108,2)" stroke-width="1" opacity="1" d="M 762 1015 L 887 1015 L 887 1076 L 883.5 1077 L 881.5 1077 L 763.5 1077 L 762 1075.5 L 762 1015 Z " /></svg>